<mxfile host="app.diagrams.net" modified="2022-06-11T05:31:05.412Z" agent="5.0 (Windows NT 10.0; Win64; x64) AppleWebKit/537.36 (KHTML, like Gecko) Chrome/102.0.0.0 Safari/537.36" etag="2O0_8RmJorCxUTybe1T5" version="19.0.0" type="github">
  <diagram id="ajMDgtF05356Bjz6rZ9x" name="Page-1">
    <mxGraphModel dx="1182" dy="586" grid="1" gridSize="10" guides="1" tooltips="1" connect="1" arrows="1" fold="1" page="1" pageScale="1" pageWidth="850" pageHeight="1100" math="0" shadow="0">
      <root>
        <mxCell id="0" />
        <mxCell id="1" parent="0" />
        <mxCell id="HvyeVBYdLzpq13RNhfr6-5" value="" style="shape=cylinder3;whiteSpace=wrap;html=1;boundedLbl=1;backgroundOutline=1;size=15;" vertex="1" parent="1">
          <mxGeometry x="260" y="60" width="180" height="230" as="geometry" />
        </mxCell>
        <mxCell id="HvyeVBYdLzpq13RNhfr6-1" value="subject" style="rounded=0;whiteSpace=wrap;html=1;" vertex="1" parent="1">
          <mxGeometry x="300" y="110" width="100" height="40" as="geometry" />
        </mxCell>
        <mxCell id="HvyeVBYdLzpq13RNhfr6-15" style="edgeStyle=orthogonalEdgeStyle;rounded=0;orthogonalLoop=1;jettySize=auto;html=1;" edge="1" parent="1" source="HvyeVBYdLzpq13RNhfr6-2" target="HvyeVBYdLzpq13RNhfr6-5">
          <mxGeometry relative="1" as="geometry" />
        </mxCell>
        <mxCell id="HvyeVBYdLzpq13RNhfr6-2" value="DB" style="shape=cylinder3;whiteSpace=wrap;html=1;boundedLbl=1;backgroundOutline=1;size=15;" vertex="1" parent="1">
          <mxGeometry x="90" y="130" width="60" height="80" as="geometry" />
        </mxCell>
        <mxCell id="HvyeVBYdLzpq13RNhfr6-3" value="Predicate" style="rounded=0;whiteSpace=wrap;html=1;" vertex="1" parent="1">
          <mxGeometry x="300" y="160" width="100" height="50" as="geometry" />
        </mxCell>
        <mxCell id="HvyeVBYdLzpq13RNhfr6-4" value="Object" style="rounded=0;whiteSpace=wrap;html=1;" vertex="1" parent="1">
          <mxGeometry x="300" y="220" width="100" height="40" as="geometry" />
        </mxCell>
        <mxCell id="HvyeVBYdLzpq13RNhfr6-14" style="edgeStyle=orthogonalEdgeStyle;rounded=0;orthogonalLoop=1;jettySize=auto;html=1;entryX=0.5;entryY=1;entryDx=0;entryDy=0;entryPerimeter=0;" edge="1" parent="1" source="HvyeVBYdLzpq13RNhfr6-6" target="HvyeVBYdLzpq13RNhfr6-2">
          <mxGeometry relative="1" as="geometry" />
        </mxCell>
        <mxCell id="HvyeVBYdLzpq13RNhfr6-6" value="Queiries&lt;br&gt;/views/rules" style="whiteSpace=wrap;html=1;aspect=fixed;" vertex="1" parent="1">
          <mxGeometry x="95" y="290" width="70" height="70" as="geometry" />
        </mxCell>
        <mxCell id="HvyeVBYdLzpq13RNhfr6-7" value="&lt;h1&gt;Text2sql build&lt;/h1&gt;&lt;div&gt;&lt;ul style=&quot;border-width: 0px; border-style: solid; border-color: rgba(229,231,235,var(--tw-border-opacity)); border-image: initial; box-sizing: border-box; --tw-translate-x:0; --tw-translate-y:0; --tw-rotate:0; --tw-skew-x:0; --tw-skew-y:0; --tw-scale-x:1; --tw-scale-y:1; --tw-transform:translateX(var(--tw-translate-x)) translateY(var(--tw-translate-y)) rotate(var(--tw-rotate)) skewX(var(--tw-skew-x)) skewY(var(--tw-skew-y)) scaleX(var(--tw-scale-x)) scaleY(var(--tw-scale-y)); --tw-border-opacity:1; --tw-ring-inset:var(--tw-empty, ); --tw-ring-offset-width:0px; --tw-ring-offset-color:#fff; --tw-ring-color:rgba(59,130,246,0.5); --tw-ring-offset-shadow:0 0 #0000; --tw-ring-shadow:0 0 #0000; --tw-shadow:0 0 #0000; --tw-blur:var(--tw-empty, ); --tw-brightness:var(--tw-empty, ); --tw-contrast:var(--tw-empty, ); --tw-grayscale:var(--tw-empty, ); --tw-hue-rotate:var(--tw-empty, ); --tw-invert:var(--tw-empty, ); --tw-saturate:var(--tw-empty, ); --tw-sepia:var(--tw-empty, ); --tw-drop-shadow:var(--tw-empty, ); --tw-filter:var(--tw-blur) var(--tw-brightness) var(--tw-contrast) var(--tw-grayscale) var(--tw-hue-rotate) var(--tw-invert) var(--tw-saturate) var(--tw-sepia) var(--tw-drop-shadow); --tw-backdrop-blur:var(--tw-empty, ); --tw-backdrop-brightness:var(--tw-empty, ); --tw-backdrop-contrast:var(--tw-empty, ); --tw-backdrop-grayscale:var(--tw-empty, ); --tw-backdrop-hue-rotate:var(--tw-empty, ); --tw-backdrop-invert:var(--tw-empty, ); --tw-backdrop-opacity:var(--tw-empty, ); --tw-backdrop-saturate:var(--tw-empty, ); --tw-backdrop-sepia:var(--tw-empty, ); --tw-backdrop-filter:var(--tw-backdrop-blur) var(--tw-backdrop-brightness) var(--tw-backdrop-contrast) var(--tw-backdrop-grayscale) var(--tw-backdrop-hue-rotate) var(--tw-backdrop-invert) var(--tw-backdrop-opacity) var(--tw-backdrop-saturate) var(--tw-backdrop-sepia); margin: 0px 0px 1.25em; padding: 0px; list-style: none; color: rgb(82, 82, 91); font-family: &amp;quot;Source Sans Pro&amp;quot;, ui-sans-serif, system-ui, -apple-system, BlinkMacSystemFont, &amp;quot;Segoe UI&amp;quot;, Roboto, &amp;quot;Helvetica Neue&amp;quot;, Arial, &amp;quot;Noto Sans&amp;quot;, sans-serif, &amp;quot;Apple Color Emoji&amp;quot;, &amp;quot;Segoe UI Emoji&amp;quot;, &amp;quot;Segoe UI Symbol&amp;quot;, &amp;quot;Noto Color Emoji&amp;quot;; font-size: 16.8px; background-color: rgb(255, 255, 255);&quot;&gt;&lt;li style=&quot;border-width: 0px; border-style: solid; border-color: rgba(229,231,235,var(--tw-border-opacity)); border-image: initial; box-sizing: border-box; --tw-translate-x:0; --tw-translate-y:0; --tw-rotate:0; --tw-skew-x:0; --tw-skew-y:0; --tw-scale-x:1; --tw-scale-y:1; --tw-transform:translateX(var(--tw-translate-x)) translateY(var(--tw-translate-y)) rotate(var(--tw-rotate)) skewX(var(--tw-skew-x)) skewY(var(--tw-skew-y)) scaleX(var(--tw-scale-x)) scaleY(var(--tw-scale-y)); --tw-border-opacity:1; --tw-ring-inset:var(--tw-empty, ); --tw-ring-offset-width:0px; --tw-ring-offset-color:#fff; --tw-ring-color:rgba(59,130,246,0.5); --tw-ring-offset-shadow:0 0 #0000; --tw-ring-shadow:0 0 #0000; --tw-shadow:0 0 #0000; --tw-blur:var(--tw-empty, ); --tw-brightness:var(--tw-empty, ); --tw-contrast:var(--tw-empty, ); --tw-grayscale:var(--tw-empty, ); --tw-hue-rotate:var(--tw-empty, ); --tw-invert:var(--tw-empty, ); --tw-saturate:var(--tw-empty, ); --tw-sepia:var(--tw-empty, ); --tw-drop-shadow:var(--tw-empty, ); --tw-filter:var(--tw-blur) var(--tw-brightness) var(--tw-contrast) var(--tw-grayscale) var(--tw-hue-rotate) var(--tw-invert) var(--tw-saturate) var(--tw-sepia) var(--tw-drop-shadow); --tw-backdrop-blur:var(--tw-empty, ); --tw-backdrop-brightness:var(--tw-empty, ); --tw-backdrop-contrast:var(--tw-empty, ); --tw-backdrop-grayscale:var(--tw-empty, ); --tw-backdrop-hue-rotate:var(--tw-empty, ); --tw-backdrop-invert:var(--tw-empty, ); --tw-backdrop-opacity:var(--tw-empty, ); --tw-backdrop-saturate:var(--tw-empty, ); --tw-backdrop-sepia:var(--tw-empty, ); --tw-backdrop-filter:var(--tw-backdrop-blur) var(--tw-backdrop-brightness) var(--tw-backdrop-contrast) var(--tw-backdrop-grayscale) var(--tw-backdrop-hue-rotate) var(--tw-backdrop-invert) var(--tw-backdrop-opacity) var(--tw-backdrop-saturate) var(--tw-backdrop-sepia); margin-bottom: 0.5em; margin-top: 0.5em; padding-left: 1.75em; position: relative;&quot;&gt;&lt;code style=&quot;border-width: 0px; border-style: solid; border-color: rgba(229,231,235,var(--tw-border-opacity)); border-image: initial; box-sizing: border-box; --tw-translate-x:0; --tw-translate-y:0; --tw-rotate:0; --tw-skew-x:0; --tw-skew-y:0; --tw-scale-x:1; --tw-scale-y:1; --tw-transform:translateX(var(--tw-translate-x)) translateY(var(--tw-translate-y)) rotate(var(--tw-rotate)) skewX(var(--tw-skew-x)) skewY(var(--tw-skew-y)) scaleX(var(--tw-scale-x)) scaleY(var(--tw-scale-y)); --tw-border-opacity:1; --tw-ring-inset:var(--tw-empty, ); --tw-ring-offset-width:0px; --tw-ring-offset-color:#fff; --tw-ring-color:rgba(59,130,246,0.5); --tw-ring-offset-shadow:0 0 #0000; --tw-ring-shadow:0 0 #0000; --tw-shadow:0 0 #0000; --tw-blur:var(--tw-empty, ); --tw-brightness:var(--tw-empty, ); --tw-contrast:var(--tw-empty, ); --tw-grayscale:var(--tw-empty, ); --tw-hue-rotate:var(--tw-empty, ); --tw-invert:var(--tw-empty, ); --tw-saturate:var(--tw-empty, ); --tw-sepia:var(--tw-empty, ); --tw-drop-shadow:var(--tw-empty, ); --tw-filter:var(--tw-blur) var(--tw-brightness) var(--tw-contrast) var(--tw-grayscale) var(--tw-hue-rotate) var(--tw-invert) var(--tw-saturate) var(--tw-sepia) var(--tw-drop-shadow); --tw-backdrop-blur:var(--tw-empty, ); --tw-backdrop-brightness:var(--tw-empty, ); --tw-backdrop-contrast:var(--tw-empty, ); --tw-backdrop-grayscale:var(--tw-empty, ); --tw-backdrop-hue-rotate:var(--tw-empty, ); --tw-backdrop-invert:var(--tw-empty, ); --tw-backdrop-opacity:var(--tw-empty, ); --tw-backdrop-saturate:var(--tw-empty, ); --tw-backdrop-sepia:var(--tw-empty, ); --tw-backdrop-filter:var(--tw-backdrop-blur) var(--tw-backdrop-brightness) var(--tw-backdrop-contrast) var(--tw-backdrop-grayscale) var(--tw-backdrop-hue-rotate) var(--tw-backdrop-invert) var(--tw-backdrop-opacity) var(--tw-backdrop-saturate) var(--tw-backdrop-sepia); font-family: &amp;quot;IBM Plex Mono&amp;quot;, ui-monospace, SFMono-Regular, Menlo, Monaco, Consolas, &amp;quot;Liberation Mono&amp;quot;, &amp;quot;Courier New&amp;quot;, monospace; font-size: 0.875em; color: rgba(31,41,55,var(--tw-text-opacity)); --tw-text-opacity:1; margin-top: 1.25em;&quot;&gt;phase&lt;/code&gt;: a&amp;nbsp;&lt;code style=&quot;border-width: 0px; border-style: solid; border-color: rgba(229,231,235,var(--tw-border-opacity)); border-image: initial; box-sizing: border-box; --tw-translate-x:0; --tw-translate-y:0; --tw-rotate:0; --tw-skew-x:0; --tw-skew-y:0; --tw-scale-x:1; --tw-scale-y:1; --tw-transform:translateX(var(--tw-translate-x)) translateY(var(--tw-translate-y)) rotate(var(--tw-rotate)) skewX(var(--tw-skew-x)) skewY(var(--tw-skew-y)) scaleX(var(--tw-scale-x)) scaleY(var(--tw-scale-y)); --tw-border-opacity:1; --tw-ring-inset:var(--tw-empty, ); --tw-ring-offset-width:0px; --tw-ring-offset-color:#fff; --tw-ring-color:rgba(59,130,246,0.5); --tw-ring-offset-shadow:0 0 #0000; --tw-ring-shadow:0 0 #0000; --tw-shadow:0 0 #0000; --tw-blur:var(--tw-empty, ); --tw-brightness:var(--tw-empty, ); --tw-contrast:var(--tw-empty, ); --tw-grayscale:var(--tw-empty, ); --tw-hue-rotate:var(--tw-empty, ); --tw-invert:var(--tw-empty, ); --tw-saturate:var(--tw-empty, ); --tw-sepia:var(--tw-empty, ); --tw-drop-shadow:var(--tw-empty, ); --tw-filter:var(--tw-blur) var(--tw-brightness) var(--tw-contrast) var(--tw-grayscale) var(--tw-hue-rotate) var(--tw-invert) var(--tw-saturate) var(--tw-sepia) var(--tw-drop-shadow); --tw-backdrop-blur:var(--tw-empty, ); --tw-backdrop-brightness:var(--tw-empty, ); --tw-backdrop-contrast:var(--tw-empty, ); --tw-backdrop-grayscale:var(--tw-empty, ); --tw-backdrop-hue-rotate:var(--tw-empty, ); --tw-backdrop-invert:var(--tw-empty, ); --tw-backdrop-opacity:var(--tw-empty, ); --tw-backdrop-saturate:var(--tw-empty, ); --tw-backdrop-sepia:var(--tw-empty, ); --tw-backdrop-filter:var(--tw-backdrop-blur) var(--tw-backdrop-brightness) var(--tw-backdrop-contrast) var(--tw-backdrop-grayscale) var(--tw-backdrop-hue-rotate) var(--tw-backdrop-invert) var(--tw-backdrop-opacity) var(--tw-backdrop-saturate) var(--tw-backdrop-sepia); font-family: &amp;quot;IBM Plex Mono&amp;quot;, ui-monospace, SFMono-Regular, Menlo, Monaco, Consolas, &amp;quot;Liberation Mono&amp;quot;, &amp;quot;Courier New&amp;quot;, monospace; font-size: 0.875em; color: rgba(31,41,55,var(--tw-text-opacity)); --tw-text-opacity:1; margin-bottom: 1.25em;&quot;&gt;int32&lt;/code&gt;&amp;nbsp;feature.&lt;/li&gt;&lt;li style=&quot;border-width: 0px; border-style: solid; border-color: rgba(229,231,235,var(--tw-border-opacity)); border-image: initial; box-sizing: border-box; --tw-translate-x:0; --tw-translate-y:0; --tw-rotate:0; --tw-skew-x:0; --tw-skew-y:0; --tw-scale-x:1; --tw-scale-y:1; --tw-transform:translateX(var(--tw-translate-x)) translateY(var(--tw-translate-y)) rotate(var(--tw-rotate)) skewX(var(--tw-skew-x)) skewY(var(--tw-skew-y)) scaleX(var(--tw-scale-x)) scaleY(var(--tw-scale-y)); --tw-border-opacity:1; --tw-ring-inset:var(--tw-empty, ); --tw-ring-offset-width:0px; --tw-ring-offset-color:#fff; --tw-ring-color:rgba(59,130,246,0.5); --tw-ring-offset-shadow:0 0 #0000; --tw-ring-shadow:0 0 #0000; --tw-shadow:0 0 #0000; --tw-blur:var(--tw-empty, ); --tw-brightness:var(--tw-empty, ); --tw-contrast:var(--tw-empty, ); --tw-grayscale:var(--tw-empty, ); --tw-hue-rotate:var(--tw-empty, ); --tw-invert:var(--tw-empty, ); --tw-saturate:var(--tw-empty, ); --tw-sepia:var(--tw-empty, ); --tw-drop-shadow:var(--tw-empty, ); --tw-filter:var(--tw-blur) var(--tw-brightness) var(--tw-contrast) var(--tw-grayscale) var(--tw-hue-rotate) var(--tw-invert) var(--tw-saturate) var(--tw-sepia) var(--tw-drop-shadow); --tw-backdrop-blur:var(--tw-empty, ); --tw-backdrop-brightness:var(--tw-empty, ); --tw-backdrop-contrast:var(--tw-empty, ); --tw-backdrop-grayscale:var(--tw-empty, ); --tw-backdrop-hue-rotate:var(--tw-empty, ); --tw-backdrop-invert:var(--tw-empty, ); --tw-backdrop-opacity:var(--tw-empty, ); --tw-backdrop-saturate:var(--tw-empty, ); --tw-backdrop-sepia:var(--tw-empty, ); --tw-backdrop-filter:var(--tw-backdrop-blur) var(--tw-backdrop-brightness) var(--tw-backdrop-contrast) var(--tw-backdrop-grayscale) var(--tw-backdrop-hue-rotate) var(--tw-backdrop-invert) var(--tw-backdrop-opacity) var(--tw-backdrop-saturate) var(--tw-backdrop-sepia); margin-bottom: 0.5em; margin-top: 0.5em; padding-left: 1.75em; position: relative;&quot;&gt;&lt;code style=&quot;border-width: 0px; border-style: solid; border-color: rgba(229,231,235,var(--tw-border-opacity)); border-image: initial; box-sizing: border-box; --tw-translate-x:0; --tw-translate-y:0; --tw-rotate:0; --tw-skew-x:0; --tw-skew-y:0; --tw-scale-x:1; --tw-scale-y:1; --tw-transform:translateX(var(--tw-translate-x)) translateY(var(--tw-translate-y)) rotate(var(--tw-rotate)) skewX(var(--tw-skew-x)) skewY(var(--tw-skew-y)) scaleX(var(--tw-scale-x)) scaleY(var(--tw-scale-y)); --tw-border-opacity:1; --tw-ring-inset:var(--tw-empty, ); --tw-ring-offset-width:0px; --tw-ring-offset-color:#fff; --tw-ring-color:rgba(59,130,246,0.5); --tw-ring-offset-shadow:0 0 #0000; --tw-ring-shadow:0 0 #0000; --tw-shadow:0 0 #0000; --tw-blur:var(--tw-empty, ); --tw-brightness:var(--tw-empty, ); --tw-contrast:var(--tw-empty, ); --tw-grayscale:var(--tw-empty, ); --tw-hue-rotate:var(--tw-empty, ); --tw-invert:var(--tw-empty, ); --tw-saturate:var(--tw-empty, ); --tw-sepia:var(--tw-empty, ); --tw-drop-shadow:var(--tw-empty, ); --tw-filter:var(--tw-blur) var(--tw-brightness) var(--tw-contrast) var(--tw-grayscale) var(--tw-hue-rotate) var(--tw-invert) var(--tw-saturate) var(--tw-sepia) var(--tw-drop-shadow); --tw-backdrop-blur:var(--tw-empty, ); --tw-backdrop-brightness:var(--tw-empty, ); --tw-backdrop-contrast:var(--tw-empty, ); --tw-backdrop-grayscale:var(--tw-empty, ); --tw-backdrop-hue-rotate:var(--tw-empty, ); --tw-backdrop-invert:var(--tw-empty, ); --tw-backdrop-opacity:var(--tw-empty, ); --tw-backdrop-saturate:var(--tw-empty, ); --tw-backdrop-sepia:var(--tw-empty, ); --tw-backdrop-filter:var(--tw-backdrop-blur) var(--tw-backdrop-brightness) var(--tw-backdrop-contrast) var(--tw-backdrop-grayscale) var(--tw-backdrop-hue-rotate) var(--tw-backdrop-invert) var(--tw-backdrop-opacity) var(--tw-backdrop-saturate) var(--tw-backdrop-sepia); font-family: &amp;quot;IBM Plex Mono&amp;quot;, ui-monospace, SFMono-Regular, Menlo, Monaco, Consolas, &amp;quot;Liberation Mono&amp;quot;, &amp;quot;Courier New&amp;quot;, monospace; font-size: 0.875em; color: rgba(31,41,55,var(--tw-text-opacity)); --tw-text-opacity:1; margin-top: 1.25em;&quot;&gt;question&lt;/code&gt;: a&amp;nbsp;&lt;code style=&quot;border-width: 0px; border-style: solid; border-color: rgba(229,231,235,var(--tw-border-opacity)); border-image: initial; box-sizing: border-box; --tw-translate-x:0; --tw-translate-y:0; --tw-rotate:0; --tw-skew-x:0; --tw-skew-y:0; --tw-scale-x:1; --tw-scale-y:1; --tw-transform:translateX(var(--tw-translate-x)) translateY(var(--tw-translate-y)) rotate(var(--tw-rotate)) skewX(var(--tw-skew-x)) skewY(var(--tw-skew-y)) scaleX(var(--tw-scale-x)) scaleY(var(--tw-scale-y)); --tw-border-opacity:1; --tw-ring-inset:var(--tw-empty, ); --tw-ring-offset-width:0px; --tw-ring-offset-color:#fff; --tw-ring-color:rgba(59,130,246,0.5); --tw-ring-offset-shadow:0 0 #0000; --tw-ring-shadow:0 0 #0000; --tw-shadow:0 0 #0000; --tw-blur:var(--tw-empty, ); --tw-brightness:var(--tw-empty, ); --tw-contrast:var(--tw-empty, ); --tw-grayscale:var(--tw-empty, ); --tw-hue-rotate:var(--tw-empty, ); --tw-invert:var(--tw-empty, ); --tw-saturate:var(--tw-empty, ); --tw-sepia:var(--tw-empty, ); --tw-drop-shadow:var(--tw-empty, ); --tw-filter:var(--tw-blur) var(--tw-brightness) var(--tw-contrast) var(--tw-grayscale) var(--tw-hue-rotate) var(--tw-invert) var(--tw-saturate) var(--tw-sepia) var(--tw-drop-shadow); --tw-backdrop-blur:var(--tw-empty, ); --tw-backdrop-brightness:var(--tw-empty, ); --tw-backdrop-contrast:var(--tw-empty, ); --tw-backdrop-grayscale:var(--tw-empty, ); --tw-backdrop-hue-rotate:var(--tw-empty, ); --tw-backdrop-invert:var(--tw-empty, ); --tw-backdrop-opacity:var(--tw-empty, ); --tw-backdrop-saturate:var(--tw-empty, ); --tw-backdrop-sepia:var(--tw-empty, ); --tw-backdrop-filter:var(--tw-backdrop-blur) var(--tw-backdrop-brightness) var(--tw-backdrop-contrast) var(--tw-backdrop-grayscale) var(--tw-backdrop-hue-rotate) var(--tw-backdrop-invert) var(--tw-backdrop-opacity) var(--tw-backdrop-saturate) var(--tw-backdrop-sepia); font-family: &amp;quot;IBM Plex Mono&amp;quot;, ui-monospace, SFMono-Regular, Menlo, Monaco, Consolas, &amp;quot;Liberation Mono&amp;quot;, &amp;quot;Courier New&amp;quot;, monospace; font-size: 0.875em; color: rgba(31,41,55,var(--tw-text-opacity)); --tw-text-opacity:1; margin-bottom: 1.25em;&quot;&gt;string&lt;/code&gt;&amp;nbsp;feature.&lt;/li&gt;&lt;li style=&quot;border-width: 0px; border-style: solid; border-color: rgba(229,231,235,var(--tw-border-opacity)); border-image: initial; box-sizing: border-box; --tw-translate-x:0; --tw-translate-y:0; --tw-rotate:0; --tw-skew-x:0; --tw-skew-y:0; --tw-scale-x:1; --tw-scale-y:1; --tw-transform:translateX(var(--tw-translate-x)) translateY(var(--tw-translate-y)) rotate(var(--tw-rotate)) skewX(var(--tw-skew-x)) skewY(var(--tw-skew-y)) scaleX(var(--tw-scale-x)) scaleY(var(--tw-scale-y)); --tw-border-opacity:1; --tw-ring-inset:var(--tw-empty, ); --tw-ring-offset-width:0px; --tw-ring-offset-color:#fff; --tw-ring-color:rgba(59,130,246,0.5); --tw-ring-offset-shadow:0 0 #0000; --tw-ring-shadow:0 0 #0000; --tw-shadow:0 0 #0000; --tw-blur:var(--tw-empty, ); --tw-brightness:var(--tw-empty, ); --tw-contrast:var(--tw-empty, ); --tw-grayscale:var(--tw-empty, ); --tw-hue-rotate:var(--tw-empty, ); --tw-invert:var(--tw-empty, ); --tw-saturate:var(--tw-empty, ); --tw-sepia:var(--tw-empty, ); --tw-drop-shadow:var(--tw-empty, ); --tw-filter:var(--tw-blur) var(--tw-brightness) var(--tw-contrast) var(--tw-grayscale) var(--tw-hue-rotate) var(--tw-invert) var(--tw-saturate) var(--tw-sepia) var(--tw-drop-shadow); --tw-backdrop-blur:var(--tw-empty, ); --tw-backdrop-brightness:var(--tw-empty, ); --tw-backdrop-contrast:var(--tw-empty, ); --tw-backdrop-grayscale:var(--tw-empty, ); --tw-backdrop-hue-rotate:var(--tw-empty, ); --tw-backdrop-invert:var(--tw-empty, ); --tw-backdrop-opacity:var(--tw-empty, ); --tw-backdrop-saturate:var(--tw-empty, ); --tw-backdrop-sepia:var(--tw-empty, ); --tw-backdrop-filter:var(--tw-backdrop-blur) var(--tw-backdrop-brightness) var(--tw-backdrop-contrast) var(--tw-backdrop-grayscale) var(--tw-backdrop-hue-rotate) var(--tw-backdrop-invert) var(--tw-backdrop-opacity) var(--tw-backdrop-saturate) var(--tw-backdrop-sepia); margin-bottom: 0.5em; margin-top: 0.5em; padding-left: 1.75em; position: relative;&quot;&gt;&lt;code style=&quot;border-width: 0px; border-style: solid; border-color: rgba(229,231,235,var(--tw-border-opacity)); border-image: initial; box-sizing: border-box; --tw-translate-x:0; --tw-translate-y:0; --tw-rotate:0; --tw-skew-x:0; --tw-skew-y:0; --tw-scale-x:1; --tw-scale-y:1; --tw-transform:translateX(var(--tw-translate-x)) translateY(var(--tw-translate-y)) rotate(var(--tw-rotate)) skewX(var(--tw-skew-x)) skewY(var(--tw-skew-y)) scaleX(var(--tw-scale-x)) scaleY(var(--tw-scale-y)); --tw-border-opacity:1; --tw-ring-inset:var(--tw-empty, ); --tw-ring-offset-width:0px; --tw-ring-offset-color:#fff; --tw-ring-color:rgba(59,130,246,0.5); --tw-ring-offset-shadow:0 0 #0000; --tw-ring-shadow:0 0 #0000; --tw-shadow:0 0 #0000; --tw-blur:var(--tw-empty, ); --tw-brightness:var(--tw-empty, ); --tw-contrast:var(--tw-empty, ); --tw-grayscale:var(--tw-empty, ); --tw-hue-rotate:var(--tw-empty, ); --tw-invert:var(--tw-empty, ); --tw-saturate:var(--tw-empty, ); --tw-sepia:var(--tw-empty, ); --tw-drop-shadow:var(--tw-empty, ); --tw-filter:var(--tw-blur) var(--tw-brightness) var(--tw-contrast) var(--tw-grayscale) var(--tw-hue-rotate) var(--tw-invert) var(--tw-saturate) var(--tw-sepia) var(--tw-drop-shadow); --tw-backdrop-blur:var(--tw-empty, ); --tw-backdrop-brightness:var(--tw-empty, ); --tw-backdrop-contrast:var(--tw-empty, ); --tw-backdrop-grayscale:var(--tw-empty, ); --tw-backdrop-hue-rotate:var(--tw-empty, ); --tw-backdrop-invert:var(--tw-empty, ); --tw-backdrop-opacity:var(--tw-empty, ); --tw-backdrop-saturate:var(--tw-empty, ); --tw-backdrop-sepia:var(--tw-empty, ); --tw-backdrop-filter:var(--tw-backdrop-blur) var(--tw-backdrop-brightness) var(--tw-backdrop-contrast) var(--tw-backdrop-grayscale) var(--tw-backdrop-hue-rotate) var(--tw-backdrop-invert) var(--tw-backdrop-opacity) var(--tw-backdrop-saturate) var(--tw-backdrop-sepia); font-family: &amp;quot;IBM Plex Mono&amp;quot;, ui-monospace, SFMono-Regular, Menlo, Monaco, Consolas, &amp;quot;Liberation Mono&amp;quot;, &amp;quot;Courier New&amp;quot;, monospace; font-size: 0.875em; color: rgba(31,41,55,var(--tw-text-opacity)); --tw-text-opacity:1; margin-top: 1.25em;&quot;&gt;header&lt;/code&gt;: a&amp;nbsp;&lt;code style=&quot;border-width: 0px; border-style: solid; border-color: rgba(229,231,235,var(--tw-border-opacity)); border-image: initial; box-sizing: border-box; --tw-translate-x:0; --tw-translate-y:0; --tw-rotate:0; --tw-skew-x:0; --tw-skew-y:0; --tw-scale-x:1; --tw-scale-y:1; --tw-transform:translateX(var(--tw-translate-x)) translateY(var(--tw-translate-y)) rotate(var(--tw-rotate)) skewX(var(--tw-skew-x)) skewY(var(--tw-skew-y)) scaleX(var(--tw-scale-x)) scaleY(var(--tw-scale-y)); --tw-border-opacity:1; --tw-ring-inset:var(--tw-empty, ); --tw-ring-offset-width:0px; --tw-ring-offset-color:#fff; --tw-ring-color:rgba(59,130,246,0.5); --tw-ring-offset-shadow:0 0 #0000; --tw-ring-shadow:0 0 #0000; --tw-shadow:0 0 #0000; --tw-blur:var(--tw-empty, ); --tw-brightness:var(--tw-empty, ); --tw-contrast:var(--tw-empty, ); --tw-grayscale:var(--tw-empty, ); --tw-hue-rotate:var(--tw-empty, ); --tw-invert:var(--tw-empty, ); --tw-saturate:var(--tw-empty, ); --tw-sepia:var(--tw-empty, ); --tw-drop-shadow:var(--tw-empty, ); --tw-filter:var(--tw-blur) var(--tw-brightness) var(--tw-contrast) var(--tw-grayscale) var(--tw-hue-rotate) var(--tw-invert) var(--tw-saturate) var(--tw-sepia) var(--tw-drop-shadow); --tw-backdrop-blur:var(--tw-empty, ); --tw-backdrop-brightness:var(--tw-empty, ); --tw-backdrop-contrast:var(--tw-empty, ); --tw-backdrop-grayscale:var(--tw-empty, ); --tw-backdrop-hue-rotate:var(--tw-empty, ); --tw-backdrop-invert:var(--tw-empty, ); --tw-backdrop-opacity:var(--tw-empty, ); --tw-backdrop-saturate:var(--tw-empty, ); --tw-backdrop-sepia:var(--tw-empty, ); --tw-backdrop-filter:var(--tw-backdrop-blur) var(--tw-backdrop-brightness) var(--tw-backdrop-contrast) var(--tw-backdrop-grayscale) var(--tw-backdrop-hue-rotate) var(--tw-backdrop-invert) var(--tw-backdrop-opacity) var(--tw-backdrop-saturate) var(--tw-backdrop-sepia); font-family: &amp;quot;IBM Plex Mono&amp;quot;, ui-monospace, SFMono-Regular, Menlo, Monaco, Consolas, &amp;quot;Liberation Mono&amp;quot;, &amp;quot;Courier New&amp;quot;, monospace; font-size: 0.875em; color: rgba(31,41,55,var(--tw-text-opacity)); --tw-text-opacity:1;&quot;&gt;list&lt;/code&gt;&amp;nbsp;of&amp;nbsp;&lt;code style=&quot;border-width: 0px; border-style: solid; border-color: rgba(229,231,235,var(--tw-border-opacity)); border-image: initial; box-sizing: border-box; --tw-translate-x:0; --tw-translate-y:0; --tw-rotate:0; --tw-skew-x:0; --tw-skew-y:0; --tw-scale-x:1; --tw-scale-y:1; --tw-transform:translateX(var(--tw-translate-x)) translateY(var(--tw-translate-y)) rotate(var(--tw-rotate)) skewX(var(--tw-skew-x)) skewY(var(--tw-skew-y)) scaleX(var(--tw-scale-x)) scaleY(var(--tw-scale-y)); --tw-border-opacity:1; --tw-ring-inset:var(--tw-empty, ); --tw-ring-offset-width:0px; --tw-ring-offset-color:#fff; --tw-ring-color:rgba(59,130,246,0.5); --tw-ring-offset-shadow:0 0 #0000; --tw-ring-shadow:0 0 #0000; --tw-shadow:0 0 #0000; --tw-blur:var(--tw-empty, ); --tw-brightness:var(--tw-empty, ); --tw-contrast:var(--tw-empty, ); --tw-grayscale:var(--tw-empty, ); --tw-hue-rotate:var(--tw-empty, ); --tw-invert:var(--tw-empty, ); --tw-saturate:var(--tw-empty, ); --tw-sepia:var(--tw-empty, ); --tw-drop-shadow:var(--tw-empty, ); --tw-filter:var(--tw-blur) var(--tw-brightness) var(--tw-contrast) var(--tw-grayscale) var(--tw-hue-rotate) var(--tw-invert) var(--tw-saturate) var(--tw-sepia) var(--tw-drop-shadow); --tw-backdrop-blur:var(--tw-empty, ); --tw-backdrop-brightness:var(--tw-empty, ); --tw-backdrop-contrast:var(--tw-empty, ); --tw-backdrop-grayscale:var(--tw-empty, ); --tw-backdrop-hue-rotate:var(--tw-empty, ); --tw-backdrop-invert:var(--tw-empty, ); --tw-backdrop-opacity:var(--tw-empty, ); --tw-backdrop-saturate:var(--tw-empty, ); --tw-backdrop-sepia:var(--tw-empty, ); --tw-backdrop-filter:var(--tw-backdrop-blur) var(--tw-backdrop-brightness) var(--tw-backdrop-contrast) var(--tw-backdrop-grayscale) var(--tw-backdrop-hue-rotate) var(--tw-backdrop-invert) var(--tw-backdrop-opacity) var(--tw-backdrop-saturate) var(--tw-backdrop-sepia); font-family: &amp;quot;IBM Plex Mono&amp;quot;, ui-monospace, SFMono-Regular, Menlo, Monaco, Consolas, &amp;quot;Liberation Mono&amp;quot;, &amp;quot;Courier New&amp;quot;, monospace; font-size: 0.875em; color: rgba(31,41,55,var(--tw-text-opacity)); --tw-text-opacity:1; margin-bottom: 1.25em;&quot;&gt;string&lt;/code&gt;&amp;nbsp;features.&lt;/li&gt;&lt;li style=&quot;border-width: 0px; border-style: solid; border-color: rgba(229,231,235,var(--tw-border-opacity)); border-image: initial; box-sizing: border-box; --tw-translate-x:0; --tw-translate-y:0; --tw-rotate:0; --tw-skew-x:0; --tw-skew-y:0; --tw-scale-x:1; --tw-scale-y:1; --tw-transform:translateX(var(--tw-translate-x)) translateY(var(--tw-translate-y)) rotate(var(--tw-rotate)) skewX(var(--tw-skew-x)) skewY(var(--tw-skew-y)) scaleX(var(--tw-scale-x)) scaleY(var(--tw-scale-y)); --tw-border-opacity:1; --tw-ring-inset:var(--tw-empty, ); --tw-ring-offset-width:0px; --tw-ring-offset-color:#fff; --tw-ring-color:rgba(59,130,246,0.5); --tw-ring-offset-shadow:0 0 #0000; --tw-ring-shadow:0 0 #0000; --tw-shadow:0 0 #0000; --tw-blur:var(--tw-empty, ); --tw-brightness:var(--tw-empty, ); --tw-contrast:var(--tw-empty, ); --tw-grayscale:var(--tw-empty, ); --tw-hue-rotate:var(--tw-empty, ); --tw-invert:var(--tw-empty, ); --tw-saturate:var(--tw-empty, ); --tw-sepia:var(--tw-empty, ); --tw-drop-shadow:var(--tw-empty, ); --tw-filter:var(--tw-blur) var(--tw-brightness) var(--tw-contrast) var(--tw-grayscale) var(--tw-hue-rotate) var(--tw-invert) var(--tw-saturate) var(--tw-sepia) var(--tw-drop-shadow); --tw-backdrop-blur:var(--tw-empty, ); --tw-backdrop-brightness:var(--tw-empty, ); --tw-backdrop-contrast:var(--tw-empty, ); --tw-backdrop-grayscale:var(--tw-empty, ); --tw-backdrop-hue-rotate:var(--tw-empty, ); --tw-backdrop-invert:var(--tw-empty, ); --tw-backdrop-opacity:var(--tw-empty, ); --tw-backdrop-saturate:var(--tw-empty, ); --tw-backdrop-sepia:var(--tw-empty, ); --tw-backdrop-filter:var(--tw-backdrop-blur) var(--tw-backdrop-brightness) var(--tw-backdrop-contrast) var(--tw-backdrop-grayscale) var(--tw-backdrop-hue-rotate) var(--tw-backdrop-invert) var(--tw-backdrop-opacity) var(--tw-backdrop-saturate) var(--tw-backdrop-sepia); margin-bottom: 0.5em; margin-top: 0.5em; padding-left: 1.75em; position: relative;&quot;&gt;&lt;code style=&quot;border-width: 0px; border-style: solid; border-color: rgba(229,231,235,var(--tw-border-opacity)); border-image: initial; box-sizing: border-box; --tw-translate-x:0; --tw-translate-y:0; --tw-rotate:0; --tw-skew-x:0; --tw-skew-y:0; --tw-scale-x:1; --tw-scale-y:1; --tw-transform:translateX(var(--tw-translate-x)) translateY(var(--tw-translate-y)) rotate(var(--tw-rotate)) skewX(var(--tw-skew-x)) skewY(var(--tw-skew-y)) scaleX(var(--tw-scale-x)) scaleY(var(--tw-scale-y)); --tw-border-opacity:1; --tw-ring-inset:var(--tw-empty, ); --tw-ring-offset-width:0px; --tw-ring-offset-color:#fff; --tw-ring-color:rgba(59,130,246,0.5); --tw-ring-offset-shadow:0 0 #0000; --tw-ring-shadow:0 0 #0000; --tw-shadow:0 0 #0000; --tw-blur:var(--tw-empty, ); --tw-brightness:var(--tw-empty, ); --tw-contrast:var(--tw-empty, ); --tw-grayscale:var(--tw-empty, ); --tw-hue-rotate:var(--tw-empty, ); --tw-invert:var(--tw-empty, ); --tw-saturate:var(--tw-empty, ); --tw-sepia:var(--tw-empty, ); --tw-drop-shadow:var(--tw-empty, ); --tw-filter:var(--tw-blur) var(--tw-brightness) var(--tw-contrast) var(--tw-grayscale) var(--tw-hue-rotate) var(--tw-invert) var(--tw-saturate) var(--tw-sepia) var(--tw-drop-shadow); --tw-backdrop-blur:var(--tw-empty, ); --tw-backdrop-brightness:var(--tw-empty, ); --tw-backdrop-contrast:var(--tw-empty, ); --tw-backdrop-grayscale:var(--tw-empty, ); --tw-backdrop-hue-rotate:var(--tw-empty, ); --tw-backdrop-invert:var(--tw-empty, ); --tw-backdrop-opacity:var(--tw-empty, ); --tw-backdrop-saturate:var(--tw-empty, ); --tw-backdrop-sepia:var(--tw-empty, ); --tw-backdrop-filter:var(--tw-backdrop-blur) var(--tw-backdrop-brightness) var(--tw-backdrop-contrast) var(--tw-backdrop-grayscale) var(--tw-backdrop-hue-rotate) var(--tw-backdrop-invert) var(--tw-backdrop-opacity) var(--tw-backdrop-saturate) var(--tw-backdrop-sepia); font-family: &amp;quot;IBM Plex Mono&amp;quot;, ui-monospace, SFMono-Regular, Menlo, Monaco, Consolas, &amp;quot;Liberation Mono&amp;quot;, &amp;quot;Courier New&amp;quot;, monospace; font-size: 0.875em; color: rgba(31,41,55,var(--tw-text-opacity)); --tw-text-opacity:1; margin-top: 1.25em;&quot;&gt;page_title&lt;/code&gt;: a&amp;nbsp;&lt;code style=&quot;border-width: 0px; border-style: solid; border-color: rgba(229,231,235,var(--tw-border-opacity)); border-image: initial; box-sizing: border-box; --tw-translate-x:0; --tw-translate-y:0; --tw-rotate:0; --tw-skew-x:0; --tw-skew-y:0; --tw-scale-x:1; --tw-scale-y:1; --tw-transform:translateX(var(--tw-translate-x)) translateY(var(--tw-translate-y)) rotate(var(--tw-rotate)) skewX(var(--tw-skew-x)) skewY(var(--tw-skew-y)) scaleX(var(--tw-scale-x)) scaleY(var(--tw-scale-y)); --tw-border-opacity:1; --tw-ring-inset:var(--tw-empty, ); --tw-ring-offset-width:0px; --tw-ring-offset-color:#fff; --tw-ring-color:rgba(59,130,246,0.5); --tw-ring-offset-shadow:0 0 #0000; --tw-ring-shadow:0 0 #0000; --tw-shadow:0 0 #0000; --tw-blur:var(--tw-empty, ); --tw-brightness:var(--tw-empty, ); --tw-contrast:var(--tw-empty, ); --tw-grayscale:var(--tw-empty, ); --tw-hue-rotate:var(--tw-empty, ); --tw-invert:var(--tw-empty, ); --tw-saturate:var(--tw-empty, ); --tw-sepia:var(--tw-empty, ); --tw-drop-shadow:var(--tw-empty, ); --tw-filter:var(--tw-blur) var(--tw-brightness) var(--tw-contrast) var(--tw-grayscale) var(--tw-hue-rotate) var(--tw-invert) var(--tw-saturate) var(--tw-sepia) var(--tw-drop-shadow); --tw-backdrop-blur:var(--tw-empty, ); --tw-backdrop-brightness:var(--tw-empty, ); --tw-backdrop-contrast:var(--tw-empty, ); --tw-backdrop-grayscale:var(--tw-empty, ); --tw-backdrop-hue-rotate:var(--tw-empty, ); --tw-backdrop-invert:var(--tw-empty, ); --tw-backdrop-opacity:var(--tw-empty, ); --tw-backdrop-saturate:var(--tw-empty, ); --tw-backdrop-sepia:var(--tw-empty, ); --tw-backdrop-filter:var(--tw-backdrop-blur) var(--tw-backdrop-brightness) var(--tw-backdrop-contrast) var(--tw-backdrop-grayscale) var(--tw-backdrop-hue-rotate) var(--tw-backdrop-invert) var(--tw-backdrop-opacity) var(--tw-backdrop-saturate) var(--tw-backdrop-sepia); font-family: &amp;quot;IBM Plex Mono&amp;quot;, ui-monospace, SFMono-Regular, Menlo, Monaco, Consolas, &amp;quot;Liberation Mono&amp;quot;, &amp;quot;Courier New&amp;quot;, monospace; font-size: 0.875em; color: rgba(31,41,55,var(--tw-text-opacity)); --tw-text-opacity:1; margin-bottom: 1.25em;&quot;&gt;string&lt;/code&gt;&amp;nbsp;feature.&lt;/li&gt;&lt;li style=&quot;border-width: 0px; border-style: solid; border-color: rgba(229,231,235,var(--tw-border-opacity)); border-image: initial; box-sizing: border-box; --tw-translate-x:0; --tw-translate-y:0; --tw-rotate:0; --tw-skew-x:0; --tw-skew-y:0; --tw-scale-x:1; --tw-scale-y:1; --tw-transform:translateX(var(--tw-translate-x)) translateY(var(--tw-translate-y)) rotate(var(--tw-rotate)) skewX(var(--tw-skew-x)) skewY(var(--tw-skew-y)) scaleX(var(--tw-scale-x)) scaleY(var(--tw-scale-y)); --tw-border-opacity:1; --tw-ring-inset:var(--tw-empty, ); --tw-ring-offset-width:0px; --tw-ring-offset-color:#fff; --tw-ring-color:rgba(59,130,246,0.5); --tw-ring-offset-shadow:0 0 #0000; --tw-ring-shadow:0 0 #0000; --tw-shadow:0 0 #0000; --tw-blur:var(--tw-empty, ); --tw-brightness:var(--tw-empty, ); --tw-contrast:var(--tw-empty, ); --tw-grayscale:var(--tw-empty, ); --tw-hue-rotate:var(--tw-empty, ); --tw-invert:var(--tw-empty, ); --tw-saturate:var(--tw-empty, ); --tw-sepia:var(--tw-empty, ); --tw-drop-shadow:var(--tw-empty, ); --tw-filter:var(--tw-blur) var(--tw-brightness) var(--tw-contrast) var(--tw-grayscale) var(--tw-hue-rotate) var(--tw-invert) var(--tw-saturate) var(--tw-sepia) var(--tw-drop-shadow); --tw-backdrop-blur:var(--tw-empty, ); --tw-backdrop-brightness:var(--tw-empty, ); --tw-backdrop-contrast:var(--tw-empty, ); --tw-backdrop-grayscale:var(--tw-empty, ); --tw-backdrop-hue-rotate:var(--tw-empty, ); --tw-backdrop-invert:var(--tw-empty, ); --tw-backdrop-opacity:var(--tw-empty, ); --tw-backdrop-saturate:var(--tw-empty, ); --tw-backdrop-sepia:var(--tw-empty, ); --tw-backdrop-filter:var(--tw-backdrop-blur) var(--tw-backdrop-brightness) var(--tw-backdrop-contrast) var(--tw-backdrop-grayscale) var(--tw-backdrop-hue-rotate) var(--tw-backdrop-invert) var(--tw-backdrop-opacity) var(--tw-backdrop-saturate) var(--tw-backdrop-sepia); margin-bottom: 0.5em; margin-top: 0.5em; padding-left: 1.75em; position: relative;&quot;&gt;&lt;code style=&quot;border-width: 0px; border-style: solid; border-color: rgba(229,231,235,var(--tw-border-opacity)); border-image: initial; box-sizing: border-box; --tw-translate-x:0; --tw-translate-y:0; --tw-rotate:0; --tw-skew-x:0; --tw-skew-y:0; --tw-scale-x:1; --tw-scale-y:1; --tw-transform:translateX(var(--tw-translate-x)) translateY(var(--tw-translate-y)) rotate(var(--tw-rotate)) skewX(var(--tw-skew-x)) skewY(var(--tw-skew-y)) scaleX(var(--tw-scale-x)) scaleY(var(--tw-scale-y)); --tw-border-opacity:1; --tw-ring-inset:var(--tw-empty, ); --tw-ring-offset-width:0px; --tw-ring-offset-color:#fff; --tw-ring-color:rgba(59,130,246,0.5); --tw-ring-offset-shadow:0 0 #0000; --tw-ring-shadow:0 0 #0000; --tw-shadow:0 0 #0000; --tw-blur:var(--tw-empty, ); --tw-brightness:var(--tw-empty, ); --tw-contrast:var(--tw-empty, ); --tw-grayscale:var(--tw-empty, ); --tw-hue-rotate:var(--tw-empty, ); --tw-invert:var(--tw-empty, ); --tw-saturate:var(--tw-empty, ); --tw-sepia:var(--tw-empty, ); --tw-drop-shadow:var(--tw-empty, ); --tw-filter:var(--tw-blur) var(--tw-brightness) var(--tw-contrast) var(--tw-grayscale) var(--tw-hue-rotate) var(--tw-invert) var(--tw-saturate) var(--tw-sepia) var(--tw-drop-shadow); --tw-backdrop-blur:var(--tw-empty, ); --tw-backdrop-brightness:var(--tw-empty, ); --tw-backdrop-contrast:var(--tw-empty, ); --tw-backdrop-grayscale:var(--tw-empty, ); --tw-backdrop-hue-rotate:var(--tw-empty, ); --tw-backdrop-invert:var(--tw-empty, ); --tw-backdrop-opacity:var(--tw-empty, ); --tw-backdrop-saturate:var(--tw-empty, ); --tw-backdrop-sepia:var(--tw-empty, ); --tw-backdrop-filter:var(--tw-backdrop-blur) var(--tw-backdrop-brightness) var(--tw-backdrop-contrast) var(--tw-backdrop-grayscale) var(--tw-backdrop-hue-rotate) var(--tw-backdrop-invert) var(--tw-backdrop-opacity) var(--tw-backdrop-saturate) var(--tw-backdrop-sepia); font-family: &amp;quot;IBM Plex Mono&amp;quot;, ui-monospace, SFMono-Regular, Menlo, Monaco, Consolas, &amp;quot;Liberation Mono&amp;quot;, &amp;quot;Courier New&amp;quot;, monospace; font-size: 0.875em; color: rgba(31,41,55,var(--tw-text-opacity)); --tw-text-opacity:1; margin-top: 1.25em;&quot;&gt;page_id&lt;/code&gt;: a&amp;nbsp;&lt;code style=&quot;border-width: 0px; border-style: solid; border-color: rgba(229,231,235,var(--tw-border-opacity)); border-image: initial; box-sizing: border-box; --tw-translate-x:0; --tw-translate-y:0; --tw-rotate:0; --tw-skew-x:0; --tw-skew-y:0; --tw-scale-x:1; --tw-scale-y:1; --tw-transform:translateX(var(--tw-translate-x)) translateY(var(--tw-translate-y)) rotate(var(--tw-rotate)) skewX(var(--tw-skew-x)) skewY(var(--tw-skew-y)) scaleX(var(--tw-scale-x)) scaleY(var(--tw-scale-y)); --tw-border-opacity:1; --tw-ring-inset:var(--tw-empty, ); --tw-ring-offset-width:0px; --tw-ring-offset-color:#fff; --tw-ring-color:rgba(59,130,246,0.5); --tw-ring-offset-shadow:0 0 #0000; --tw-ring-shadow:0 0 #0000; --tw-shadow:0 0 #0000; --tw-blur:var(--tw-empty, ); --tw-brightness:var(--tw-empty, ); --tw-contrast:var(--tw-empty, ); --tw-grayscale:var(--tw-empty, ); --tw-hue-rotate:var(--tw-empty, ); --tw-invert:var(--tw-empty, ); --tw-saturate:var(--tw-empty, ); --tw-sepia:var(--tw-empty, ); --tw-drop-shadow:var(--tw-empty, ); --tw-filter:var(--tw-blur) var(--tw-brightness) var(--tw-contrast) var(--tw-grayscale) var(--tw-hue-rotate) var(--tw-invert) var(--tw-saturate) var(--tw-sepia) var(--tw-drop-shadow); --tw-backdrop-blur:var(--tw-empty, ); --tw-backdrop-brightness:var(--tw-empty, ); --tw-backdrop-contrast:var(--tw-empty, ); --tw-backdrop-grayscale:var(--tw-empty, ); --tw-backdrop-hue-rotate:var(--tw-empty, ); --tw-backdrop-invert:var(--tw-empty, ); --tw-backdrop-opacity:var(--tw-empty, ); --tw-backdrop-saturate:var(--tw-empty, ); --tw-backdrop-sepia:var(--tw-empty, ); --tw-backdrop-filter:var(--tw-backdrop-blur) var(--tw-backdrop-brightness) var(--tw-backdrop-contrast) var(--tw-backdrop-grayscale) var(--tw-backdrop-hue-rotate) var(--tw-backdrop-invert) var(--tw-backdrop-opacity) var(--tw-backdrop-saturate) var(--tw-backdrop-sepia); font-family: &amp;quot;IBM Plex Mono&amp;quot;, ui-monospace, SFMono-Regular, Menlo, Monaco, Consolas, &amp;quot;Liberation Mono&amp;quot;, &amp;quot;Courier New&amp;quot;, monospace; font-size: 0.875em; color: rgba(31,41,55,var(--tw-text-opacity)); --tw-text-opacity:1; margin-bottom: 1.25em;&quot;&gt;string&lt;/code&gt;&amp;nbsp;feature.&lt;/li&gt;&lt;li style=&quot;border-width: 0px; border-style: solid; border-color: rgba(229,231,235,var(--tw-border-opacity)); border-image: initial; box-sizing: border-box; --tw-translate-x:0; --tw-translate-y:0; --tw-rotate:0; --tw-skew-x:0; --tw-skew-y:0; --tw-scale-x:1; --tw-scale-y:1; --tw-transform:translateX(var(--tw-translate-x)) translateY(var(--tw-translate-y)) rotate(var(--tw-rotate)) skewX(var(--tw-skew-x)) skewY(var(--tw-skew-y)) scaleX(var(--tw-scale-x)) scaleY(var(--tw-scale-y)); --tw-border-opacity:1; --tw-ring-inset:var(--tw-empty, ); --tw-ring-offset-width:0px; --tw-ring-offset-color:#fff; --tw-ring-color:rgba(59,130,246,0.5); --tw-ring-offset-shadow:0 0 #0000; --tw-ring-shadow:0 0 #0000; --tw-shadow:0 0 #0000; --tw-blur:var(--tw-empty, ); --tw-brightness:var(--tw-empty, ); --tw-contrast:var(--tw-empty, ); --tw-grayscale:var(--tw-empty, ); --tw-hue-rotate:var(--tw-empty, ); --tw-invert:var(--tw-empty, ); --tw-saturate:var(--tw-empty, ); --tw-sepia:var(--tw-empty, ); --tw-drop-shadow:var(--tw-empty, ); --tw-filter:var(--tw-blur) var(--tw-brightness) var(--tw-contrast) var(--tw-grayscale) var(--tw-hue-rotate) var(--tw-invert) var(--tw-saturate) var(--tw-sepia) var(--tw-drop-shadow); --tw-backdrop-blur:var(--tw-empty, ); --tw-backdrop-brightness:var(--tw-empty, ); --tw-backdrop-contrast:var(--tw-empty, ); --tw-backdrop-grayscale:var(--tw-empty, ); --tw-backdrop-hue-rotate:var(--tw-empty, ); --tw-backdrop-invert:var(--tw-empty, ); --tw-backdrop-opacity:var(--tw-empty, ); --tw-backdrop-saturate:var(--tw-empty, ); --tw-backdrop-sepia:var(--tw-empty, ); --tw-backdrop-filter:var(--tw-backdrop-blur) var(--tw-backdrop-brightness) var(--tw-backdrop-contrast) var(--tw-backdrop-grayscale) var(--tw-backdrop-hue-rotate) var(--tw-backdrop-invert) var(--tw-backdrop-opacity) var(--tw-backdrop-saturate) var(--tw-backdrop-sepia); margin-bottom: 0.5em; margin-top: 0.5em; padding-left: 1.75em; position: relative;&quot;&gt;&lt;code style=&quot;border-width: 0px; border-style: solid; border-color: rgba(229,231,235,var(--tw-border-opacity)); border-image: initial; box-sizing: border-box; --tw-translate-x:0; --tw-translate-y:0; --tw-rotate:0; --tw-skew-x:0; --tw-skew-y:0; --tw-scale-x:1; --tw-scale-y:1; --tw-transform:translateX(var(--tw-translate-x)) translateY(var(--tw-translate-y)) rotate(var(--tw-rotate)) skewX(var(--tw-skew-x)) skewY(var(--tw-skew-y)) scaleX(var(--tw-scale-x)) scaleY(var(--tw-scale-y)); --tw-border-opacity:1; --tw-ring-inset:var(--tw-empty, ); --tw-ring-offset-width:0px; --tw-ring-offset-color:#fff; --tw-ring-color:rgba(59,130,246,0.5); --tw-ring-offset-shadow:0 0 #0000; --tw-ring-shadow:0 0 #0000; --tw-shadow:0 0 #0000; --tw-blur:var(--tw-empty, ); --tw-brightness:var(--tw-empty, ); --tw-contrast:var(--tw-empty, ); --tw-grayscale:var(--tw-empty, ); --tw-hue-rotate:var(--tw-empty, ); --tw-invert:var(--tw-empty, ); --tw-saturate:var(--tw-empty, ); --tw-sepia:var(--tw-empty, ); --tw-drop-shadow:var(--tw-empty, ); --tw-filter:var(--tw-blur) var(--tw-brightness) var(--tw-contrast) var(--tw-grayscale) var(--tw-hue-rotate) var(--tw-invert) var(--tw-saturate) var(--tw-sepia) var(--tw-drop-shadow); --tw-backdrop-blur:var(--tw-empty, ); --tw-backdrop-brightness:var(--tw-empty, ); --tw-backdrop-contrast:var(--tw-empty, ); --tw-backdrop-grayscale:var(--tw-empty, ); --tw-backdrop-hue-rotate:var(--tw-empty, ); --tw-backdrop-invert:var(--tw-empty, ); --tw-backdrop-opacity:var(--tw-empty, ); --tw-backdrop-saturate:var(--tw-empty, ); --tw-backdrop-sepia:var(--tw-empty, ); --tw-backdrop-filter:var(--tw-backdrop-blur) var(--tw-backdrop-brightness) var(--tw-backdrop-contrast) var(--tw-backdrop-grayscale) var(--tw-backdrop-hue-rotate) var(--tw-backdrop-invert) var(--tw-backdrop-opacity) var(--tw-backdrop-saturate) var(--tw-backdrop-sepia); font-family: &amp;quot;IBM Plex Mono&amp;quot;, ui-monospace, SFMono-Regular, Menlo, Monaco, Consolas, &amp;quot;Liberation Mono&amp;quot;, &amp;quot;Courier New&amp;quot;, monospace; font-size: 0.875em; color: rgba(31,41,55,var(--tw-text-opacity)); --tw-text-opacity:1; margin-top: 1.25em;&quot;&gt;types&lt;/code&gt;: a&amp;nbsp;&lt;code style=&quot;border-width: 0px; border-style: solid; border-color: rgba(229,231,235,var(--tw-border-opacity)); border-image: initial; box-sizing: border-box; --tw-translate-x:0; --tw-translate-y:0; --tw-rotate:0; --tw-skew-x:0; --tw-skew-y:0; --tw-scale-x:1; --tw-scale-y:1; --tw-transform:translateX(var(--tw-translate-x)) translateY(var(--tw-translate-y)) rotate(var(--tw-rotate)) skewX(var(--tw-skew-x)) skewY(var(--tw-skew-y)) scaleX(var(--tw-scale-x)) scaleY(var(--tw-scale-y)); --tw-border-opacity:1; --tw-ring-inset:var(--tw-empty, ); --tw-ring-offset-width:0px; --tw-ring-offset-color:#fff; --tw-ring-color:rgba(59,130,246,0.5); --tw-ring-offset-shadow:0 0 #0000; --tw-ring-shadow:0 0 #0000; --tw-shadow:0 0 #0000; --tw-blur:var(--tw-empty, ); --tw-brightness:var(--tw-empty, ); --tw-contrast:var(--tw-empty, ); --tw-grayscale:var(--tw-empty, ); --tw-hue-rotate:var(--tw-empty, ); --tw-invert:var(--tw-empty, ); --tw-saturate:var(--tw-empty, ); --tw-sepia:var(--tw-empty, ); --tw-drop-shadow:var(--tw-empty, ); --tw-filter:var(--tw-blur) var(--tw-brightness) var(--tw-contrast) var(--tw-grayscale) var(--tw-hue-rotate) var(--tw-invert) var(--tw-saturate) var(--tw-sepia) var(--tw-drop-shadow); --tw-backdrop-blur:var(--tw-empty, ); --tw-backdrop-brightness:var(--tw-empty, ); --tw-backdrop-contrast:var(--tw-empty, ); --tw-backdrop-grayscale:var(--tw-empty, ); --tw-backdrop-hue-rotate:var(--tw-empty, ); --tw-backdrop-invert:var(--tw-empty, ); --tw-backdrop-opacity:var(--tw-empty, ); --tw-backdrop-saturate:var(--tw-empty, ); --tw-backdrop-sepia:var(--tw-empty, ); --tw-backdrop-filter:var(--tw-backdrop-blur) var(--tw-backdrop-brightness) var(--tw-backdrop-contrast) var(--tw-backdrop-grayscale) var(--tw-backdrop-hue-rotate) var(--tw-backdrop-invert) var(--tw-backdrop-opacity) var(--tw-backdrop-saturate) var(--tw-backdrop-sepia); font-family: &amp;quot;IBM Plex Mono&amp;quot;, ui-monospace, SFMono-Regular, Menlo, Monaco, Consolas, &amp;quot;Liberation Mono&amp;quot;, &amp;quot;Courier New&amp;quot;, monospace; font-size: 0.875em; color: rgba(31,41,55,var(--tw-text-opacity)); --tw-text-opacity:1;&quot;&gt;list&lt;/code&gt;&amp;nbsp;of&amp;nbsp;&lt;code style=&quot;border-width: 0px; border-style: solid; border-color: rgba(229,231,235,var(--tw-border-opacity)); border-image: initial; box-sizing: border-box; --tw-translate-x:0; --tw-translate-y:0; --tw-rotate:0; --tw-skew-x:0; --tw-skew-y:0; --tw-scale-x:1; --tw-scale-y:1; --tw-transform:translateX(var(--tw-translate-x)) translateY(var(--tw-translate-y)) rotate(var(--tw-rotate)) skewX(var(--tw-skew-x)) skewY(var(--tw-skew-y)) scaleX(var(--tw-scale-x)) scaleY(var(--tw-scale-y)); --tw-border-opacity:1; --tw-ring-inset:var(--tw-empty, ); --tw-ring-offset-width:0px; --tw-ring-offset-color:#fff; --tw-ring-color:rgba(59,130,246,0.5); --tw-ring-offset-shadow:0 0 #0000; --tw-ring-shadow:0 0 #0000; --tw-shadow:0 0 #0000; --tw-blur:var(--tw-empty, ); --tw-brightness:var(--tw-empty, ); --tw-contrast:var(--tw-empty, ); --tw-grayscale:var(--tw-empty, ); --tw-hue-rotate:var(--tw-empty, ); --tw-invert:var(--tw-empty, ); --tw-saturate:var(--tw-empty, ); --tw-sepia:var(--tw-empty, ); --tw-drop-shadow:var(--tw-empty, ); --tw-filter:var(--tw-blur) var(--tw-brightness) var(--tw-contrast) var(--tw-grayscale) var(--tw-hue-rotate) var(--tw-invert) var(--tw-saturate) var(--tw-sepia) var(--tw-drop-shadow); --tw-backdrop-blur:var(--tw-empty, ); --tw-backdrop-brightness:var(--tw-empty, ); --tw-backdrop-contrast:var(--tw-empty, ); --tw-backdrop-grayscale:var(--tw-empty, ); --tw-backdrop-hue-rotate:var(--tw-empty, ); --tw-backdrop-invert:var(--tw-empty, ); --tw-backdrop-opacity:var(--tw-empty, ); --tw-backdrop-saturate:var(--tw-empty, ); --tw-backdrop-sepia:var(--tw-empty, ); --tw-backdrop-filter:var(--tw-backdrop-blur) var(--tw-backdrop-brightness) var(--tw-backdrop-contrast) var(--tw-backdrop-grayscale) var(--tw-backdrop-hue-rotate) var(--tw-backdrop-invert) var(--tw-backdrop-opacity) var(--tw-backdrop-saturate) var(--tw-backdrop-sepia); font-family: &amp;quot;IBM Plex Mono&amp;quot;, ui-monospace, SFMono-Regular, Menlo, Monaco, Consolas, &amp;quot;Liberation Mono&amp;quot;, &amp;quot;Courier New&amp;quot;, monospace; font-size: 0.875em; color: rgba(31,41,55,var(--tw-text-opacity)); --tw-text-opacity:1; margin-bottom: 1.25em;&quot;&gt;string&lt;/code&gt;&amp;nbsp;features.&lt;/li&gt;&lt;li style=&quot;border-width: 0px; border-style: solid; border-color: rgba(229,231,235,var(--tw-border-opacity)); border-image: initial; box-sizing: border-box; --tw-translate-x:0; --tw-translate-y:0; --tw-rotate:0; --tw-skew-x:0; --tw-skew-y:0; --tw-scale-x:1; --tw-scale-y:1; --tw-transform:translateX(var(--tw-translate-x)) translateY(var(--tw-translate-y)) rotate(var(--tw-rotate)) skewX(var(--tw-skew-x)) skewY(var(--tw-skew-y)) scaleX(var(--tw-scale-x)) scaleY(var(--tw-scale-y)); --tw-border-opacity:1; --tw-ring-inset:var(--tw-empty, ); --tw-ring-offset-width:0px; --tw-ring-offset-color:#fff; --tw-ring-color:rgba(59,130,246,0.5); --tw-ring-offset-shadow:0 0 #0000; --tw-ring-shadow:0 0 #0000; --tw-shadow:0 0 #0000; --tw-blur:var(--tw-empty, ); --tw-brightness:var(--tw-empty, ); --tw-contrast:var(--tw-empty, ); --tw-grayscale:var(--tw-empty, ); --tw-hue-rotate:var(--tw-empty, ); --tw-invert:var(--tw-empty, ); --tw-saturate:var(--tw-empty, ); --tw-sepia:var(--tw-empty, ); --tw-drop-shadow:var(--tw-empty, ); --tw-filter:var(--tw-blur) var(--tw-brightness) var(--tw-contrast) var(--tw-grayscale) var(--tw-hue-rotate) var(--tw-invert) var(--tw-saturate) var(--tw-sepia) var(--tw-drop-shadow); --tw-backdrop-blur:var(--tw-empty, ); --tw-backdrop-brightness:var(--tw-empty, ); --tw-backdrop-contrast:var(--tw-empty, ); --tw-backdrop-grayscale:var(--tw-empty, ); --tw-backdrop-hue-rotate:var(--tw-empty, ); --tw-backdrop-invert:var(--tw-empty, ); --tw-backdrop-opacity:var(--tw-empty, ); --tw-backdrop-saturate:var(--tw-empty, ); --tw-backdrop-sepia:var(--tw-empty, ); --tw-backdrop-filter:var(--tw-backdrop-blur) var(--tw-backdrop-brightness) var(--tw-backdrop-contrast) var(--tw-backdrop-grayscale) var(--tw-backdrop-hue-rotate) var(--tw-backdrop-invert) var(--tw-backdrop-opacity) var(--tw-backdrop-saturate) var(--tw-backdrop-sepia); margin-bottom: 0.5em; margin-top: 0.5em; padding-left: 1.75em; position: relative;&quot;&gt;&lt;code style=&quot;border-width: 0px; border-style: solid; border-color: rgba(229,231,235,var(--tw-border-opacity)); border-image: initial; box-sizing: border-box; --tw-translate-x:0; --tw-translate-y:0; --tw-rotate:0; --tw-skew-x:0; --tw-skew-y:0; --tw-scale-x:1; --tw-scale-y:1; --tw-transform:translateX(var(--tw-translate-x)) translateY(var(--tw-translate-y)) rotate(var(--tw-rotate)) skewX(var(--tw-skew-x)) skewY(var(--tw-skew-y)) scaleX(var(--tw-scale-x)) scaleY(var(--tw-scale-y)); --tw-border-opacity:1; --tw-ring-inset:var(--tw-empty, ); --tw-ring-offset-width:0px; --tw-ring-offset-color:#fff; --tw-ring-color:rgba(59,130,246,0.5); --tw-ring-offset-shadow:0 0 #0000; --tw-ring-shadow:0 0 #0000; --tw-shadow:0 0 #0000; --tw-blur:var(--tw-empty, ); --tw-brightness:var(--tw-empty, ); --tw-contrast:var(--tw-empty, ); --tw-grayscale:var(--tw-empty, ); --tw-hue-rotate:var(--tw-empty, ); --tw-invert:var(--tw-empty, ); --tw-saturate:var(--tw-empty, ); --tw-sepia:var(--tw-empty, ); --tw-drop-shadow:var(--tw-empty, ); --tw-filter:var(--tw-blur) var(--tw-brightness) var(--tw-contrast) var(--tw-grayscale) var(--tw-hue-rotate) var(--tw-invert) var(--tw-saturate) var(--tw-sepia) var(--tw-drop-shadow); --tw-backdrop-blur:var(--tw-empty, ); --tw-backdrop-brightness:var(--tw-empty, ); --tw-backdrop-contrast:var(--tw-empty, ); --tw-backdrop-grayscale:var(--tw-empty, ); --tw-backdrop-hue-rotate:var(--tw-empty, ); --tw-backdrop-invert:var(--tw-empty, ); --tw-backdrop-opacity:var(--tw-empty, ); --tw-backdrop-saturate:var(--tw-empty, ); --tw-backdrop-sepia:var(--tw-empty, ); --tw-backdrop-filter:var(--tw-backdrop-blur) var(--tw-backdrop-brightness) var(--tw-backdrop-contrast) var(--tw-backdrop-grayscale) var(--tw-backdrop-hue-rotate) var(--tw-backdrop-invert) var(--tw-backdrop-opacity) var(--tw-backdrop-saturate) var(--tw-backdrop-sepia); font-family: &amp;quot;IBM Plex Mono&amp;quot;, ui-monospace, SFMono-Regular, Menlo, Monaco, Consolas, &amp;quot;Liberation Mono&amp;quot;, &amp;quot;Courier New&amp;quot;, monospace; font-size: 0.875em; color: rgba(31,41,55,var(--tw-text-opacity)); --tw-text-opacity:1; margin-top: 1.25em;&quot;&gt;id&lt;/code&gt;: a&amp;nbsp;&lt;code style=&quot;border-width: 0px; border-style: solid; border-color: rgba(229,231,235,var(--tw-border-opacity)); border-image: initial; box-sizing: border-box; --tw-translate-x:0; --tw-translate-y:0; --tw-rotate:0; --tw-skew-x:0; --tw-skew-y:0; --tw-scale-x:1; --tw-scale-y:1; --tw-transform:translateX(var(--tw-translate-x)) translateY(var(--tw-translate-y)) rotate(var(--tw-rotate)) skewX(var(--tw-skew-x)) skewY(var(--tw-skew-y)) scaleX(var(--tw-scale-x)) scaleY(var(--tw-scale-y)); --tw-border-opacity:1; --tw-ring-inset:var(--tw-empty, ); --tw-ring-offset-width:0px; --tw-ring-offset-color:#fff; --tw-ring-color:rgba(59,130,246,0.5); --tw-ring-offset-shadow:0 0 #0000; --tw-ring-shadow:0 0 #0000; --tw-shadow:0 0 #0000; --tw-blur:var(--tw-empty, ); --tw-brightness:var(--tw-empty, ); --tw-contrast:var(--tw-empty, ); --tw-grayscale:var(--tw-empty, ); --tw-hue-rotate:var(--tw-empty, ); --tw-invert:var(--tw-empty, ); --tw-saturate:var(--tw-empty, ); --tw-sepia:var(--tw-empty, ); --tw-drop-shadow:var(--tw-empty, ); --tw-filter:var(--tw-blur) var(--tw-brightness) var(--tw-contrast) var(--tw-grayscale) var(--tw-hue-rotate) var(--tw-invert) var(--tw-saturate) var(--tw-sepia) var(--tw-drop-shadow); --tw-backdrop-blur:var(--tw-empty, ); --tw-backdrop-brightness:var(--tw-empty, ); --tw-backdrop-contrast:var(--tw-empty, ); --tw-backdrop-grayscale:var(--tw-empty, ); --tw-backdrop-hue-rotate:var(--tw-empty, ); --tw-backdrop-invert:var(--tw-empty, ); --tw-backdrop-opacity:var(--tw-empty, ); --tw-backdrop-saturate:var(--tw-empty, ); --tw-backdrop-sepia:var(--tw-empty, ); --tw-backdrop-filter:var(--tw-backdrop-blur) var(--tw-backdrop-brightness) var(--tw-backdrop-contrast) var(--tw-backdrop-grayscale) var(--tw-backdrop-hue-rotate) var(--tw-backdrop-invert) var(--tw-backdrop-opacity) var(--tw-backdrop-saturate) var(--tw-backdrop-sepia); font-family: &amp;quot;IBM Plex Mono&amp;quot;, ui-monospace, SFMono-Regular, Menlo, Monaco, Consolas, &amp;quot;Liberation Mono&amp;quot;, &amp;quot;Courier New&amp;quot;, monospace; font-size: 0.875em; color: rgba(31,41,55,var(--tw-text-opacity)); --tw-text-opacity:1; margin-bottom: 1.25em;&quot;&gt;string&lt;/code&gt;&amp;nbsp;feature.&lt;/li&gt;&lt;li style=&quot;border-width: 0px; border-style: solid; border-color: rgba(229,231,235,var(--tw-border-opacity)); border-image: initial; box-sizing: border-box; --tw-translate-x:0; --tw-translate-y:0; --tw-rotate:0; --tw-skew-x:0; --tw-skew-y:0; --tw-scale-x:1; --tw-scale-y:1; --tw-transform:translateX(var(--tw-translate-x)) translateY(var(--tw-translate-y)) rotate(var(--tw-rotate)) skewX(var(--tw-skew-x)) skewY(var(--tw-skew-y)) scaleX(var(--tw-scale-x)) scaleY(var(--tw-scale-y)); --tw-border-opacity:1; --tw-ring-inset:var(--tw-empty, ); --tw-ring-offset-width:0px; --tw-ring-offset-color:#fff; --tw-ring-color:rgba(59,130,246,0.5); --tw-ring-offset-shadow:0 0 #0000; --tw-ring-shadow:0 0 #0000; --tw-shadow:0 0 #0000; --tw-blur:var(--tw-empty, ); --tw-brightness:var(--tw-empty, ); --tw-contrast:var(--tw-empty, ); --tw-grayscale:var(--tw-empty, ); --tw-hue-rotate:var(--tw-empty, ); --tw-invert:var(--tw-empty, ); --tw-saturate:var(--tw-empty, ); --tw-sepia:var(--tw-empty, ); --tw-drop-shadow:var(--tw-empty, ); --tw-filter:var(--tw-blur) var(--tw-brightness) var(--tw-contrast) var(--tw-grayscale) var(--tw-hue-rotate) var(--tw-invert) var(--tw-saturate) var(--tw-sepia) var(--tw-drop-shadow); --tw-backdrop-blur:var(--tw-empty, ); --tw-backdrop-brightness:var(--tw-empty, ); --tw-backdrop-contrast:var(--tw-empty, ); --tw-backdrop-grayscale:var(--tw-empty, ); --tw-backdrop-hue-rotate:var(--tw-empty, ); --tw-backdrop-invert:var(--tw-empty, ); --tw-backdrop-opacity:var(--tw-empty, ); --tw-backdrop-saturate:var(--tw-empty, ); --tw-backdrop-sepia:var(--tw-empty, ); --tw-backdrop-filter:var(--tw-backdrop-blur) var(--tw-backdrop-brightness) var(--tw-backdrop-contrast) var(--tw-backdrop-grayscale) var(--tw-backdrop-hue-rotate) var(--tw-backdrop-invert) var(--tw-backdrop-opacity) var(--tw-backdrop-saturate) var(--tw-backdrop-sepia); margin-bottom: 0.5em; margin-top: 0.5em; padding-left: 1.75em; position: relative;&quot;&gt;&lt;code style=&quot;border-width: 0px; border-style: solid; border-color: rgba(229,231,235,var(--tw-border-opacity)); border-image: initial; box-sizing: border-box; --tw-translate-x:0; --tw-translate-y:0; --tw-rotate:0; --tw-skew-x:0; --tw-skew-y:0; --tw-scale-x:1; --tw-scale-y:1; --tw-transform:translateX(var(--tw-translate-x)) translateY(var(--tw-translate-y)) rotate(var(--tw-rotate)) skewX(var(--tw-skew-x)) skewY(var(--tw-skew-y)) scaleX(var(--tw-scale-x)) scaleY(var(--tw-scale-y)); --tw-border-opacity:1; --tw-ring-inset:var(--tw-empty, ); --tw-ring-offset-width:0px; --tw-ring-offset-color:#fff; --tw-ring-color:rgba(59,130,246,0.5); --tw-ring-offset-shadow:0 0 #0000; --tw-ring-shadow:0 0 #0000; --tw-shadow:0 0 #0000; --tw-blur:var(--tw-empty, ); --tw-brightness:var(--tw-empty, ); --tw-contrast:var(--tw-empty, ); --tw-grayscale:var(--tw-empty, ); --tw-hue-rotate:var(--tw-empty, ); --tw-invert:var(--tw-empty, ); --tw-saturate:var(--tw-empty, ); --tw-sepia:var(--tw-empty, ); --tw-drop-shadow:var(--tw-empty, ); --tw-filter:var(--tw-blur) var(--tw-brightness) var(--tw-contrast) var(--tw-grayscale) var(--tw-hue-rotate) var(--tw-invert) var(--tw-saturate) var(--tw-sepia) var(--tw-drop-shadow); --tw-backdrop-blur:var(--tw-empty, ); --tw-backdrop-brightness:var(--tw-empty, ); --tw-backdrop-contrast:var(--tw-empty, ); --tw-backdrop-grayscale:var(--tw-empty, ); --tw-backdrop-hue-rotate:var(--tw-empty, ); --tw-backdrop-invert:var(--tw-empty, ); --tw-backdrop-opacity:var(--tw-empty, ); --tw-backdrop-saturate:var(--tw-empty, ); --tw-backdrop-sepia:var(--tw-empty, ); --tw-backdrop-filter:var(--tw-backdrop-blur) var(--tw-backdrop-brightness) var(--tw-backdrop-contrast) var(--tw-backdrop-grayscale) var(--tw-backdrop-hue-rotate) var(--tw-backdrop-invert) var(--tw-backdrop-opacity) var(--tw-backdrop-saturate) var(--tw-backdrop-sepia); font-family: &amp;quot;IBM Plex Mono&amp;quot;, ui-monospace, SFMono-Regular, Menlo, Monaco, Consolas, &amp;quot;Liberation Mono&amp;quot;, &amp;quot;Courier New&amp;quot;, monospace; font-size: 0.875em; color: rgba(31,41,55,var(--tw-text-opacity)); --tw-text-opacity:1; margin-top: 1.25em;&quot;&gt;section_title&lt;/code&gt;: a&amp;nbsp;&lt;code style=&quot;border-width: 0px; border-style: solid; border-color: rgba(229,231,235,var(--tw-border-opacity)); border-image: initial; box-sizing: border-box; --tw-translate-x:0; --tw-translate-y:0; --tw-rotate:0; --tw-skew-x:0; --tw-skew-y:0; --tw-scale-x:1; --tw-scale-y:1; --tw-transform:translateX(var(--tw-translate-x)) translateY(var(--tw-translate-y)) rotate(var(--tw-rotate)) skewX(var(--tw-skew-x)) skewY(var(--tw-skew-y)) scaleX(var(--tw-scale-x)) scaleY(var(--tw-scale-y)); --tw-border-opacity:1; --tw-ring-inset:var(--tw-empty, ); --tw-ring-offset-width:0px; --tw-ring-offset-color:#fff; --tw-ring-color:rgba(59,130,246,0.5); --tw-ring-offset-shadow:0 0 #0000; --tw-ring-shadow:0 0 #0000; --tw-shadow:0 0 #0000; --tw-blur:var(--tw-empty, ); --tw-brightness:var(--tw-empty, ); --tw-contrast:var(--tw-empty, ); --tw-grayscale:var(--tw-empty, ); --tw-hue-rotate:var(--tw-empty, ); --tw-invert:var(--tw-empty, ); --tw-saturate:var(--tw-empty, ); --tw-sepia:var(--tw-empty, ); --tw-drop-shadow:var(--tw-empty, ); --tw-filter:var(--tw-blur) var(--tw-brightness) var(--tw-contrast) var(--tw-grayscale) var(--tw-hue-rotate) var(--tw-invert) var(--tw-saturate) var(--tw-sepia) var(--tw-drop-shadow); --tw-backdrop-blur:var(--tw-empty, ); --tw-backdrop-brightness:var(--tw-empty, ); --tw-backdrop-contrast:var(--tw-empty, ); --tw-backdrop-grayscale:var(--tw-empty, ); --tw-backdrop-hue-rotate:var(--tw-empty, ); --tw-backdrop-invert:var(--tw-empty, ); --tw-backdrop-opacity:var(--tw-empty, ); --tw-backdrop-saturate:var(--tw-empty, ); --tw-backdrop-sepia:var(--tw-empty, ); --tw-backdrop-filter:var(--tw-backdrop-blur) var(--tw-backdrop-brightness) var(--tw-backdrop-contrast) var(--tw-backdrop-grayscale) var(--tw-backdrop-hue-rotate) var(--tw-backdrop-invert) var(--tw-backdrop-opacity) var(--tw-backdrop-saturate) var(--tw-backdrop-sepia); font-family: &amp;quot;IBM Plex Mono&amp;quot;, ui-monospace, SFMono-Regular, Menlo, Monaco, Consolas, &amp;quot;Liberation Mono&amp;quot;, &amp;quot;Courier New&amp;quot;, monospace; font-size: 0.875em; color: rgba(31,41,55,var(--tw-text-opacity)); --tw-text-opacity:1; margin-bottom: 1.25em;&quot;&gt;string&lt;/code&gt;&amp;nbsp;feature.&lt;/li&gt;&lt;li style=&quot;border-width: 0px; border-style: solid; border-color: rgba(229,231,235,var(--tw-border-opacity)); border-image: initial; box-sizing: border-box; --tw-translate-x:0; --tw-translate-y:0; --tw-rotate:0; --tw-skew-x:0; --tw-skew-y:0; --tw-scale-x:1; --tw-scale-y:1; --tw-transform:translateX(var(--tw-translate-x)) translateY(var(--tw-translate-y)) rotate(var(--tw-rotate)) skewX(var(--tw-skew-x)) skewY(var(--tw-skew-y)) scaleX(var(--tw-scale-x)) scaleY(var(--tw-scale-y)); --tw-border-opacity:1; --tw-ring-inset:var(--tw-empty, ); --tw-ring-offset-width:0px; --tw-ring-offset-color:#fff; --tw-ring-color:rgba(59,130,246,0.5); --tw-ring-offset-shadow:0 0 #0000; --tw-ring-shadow:0 0 #0000; --tw-shadow:0 0 #0000; --tw-blur:var(--tw-empty, ); --tw-brightness:var(--tw-empty, ); --tw-contrast:var(--tw-empty, ); --tw-grayscale:var(--tw-empty, ); --tw-hue-rotate:var(--tw-empty, ); --tw-invert:var(--tw-empty, ); --tw-saturate:var(--tw-empty, ); --tw-sepia:var(--tw-empty, ); --tw-drop-shadow:var(--tw-empty, ); --tw-filter:var(--tw-blur) var(--tw-brightness) var(--tw-contrast) var(--tw-grayscale) var(--tw-hue-rotate) var(--tw-invert) var(--tw-saturate) var(--tw-sepia) var(--tw-drop-shadow); --tw-backdrop-blur:var(--tw-empty, ); --tw-backdrop-brightness:var(--tw-empty, ); --tw-backdrop-contrast:var(--tw-empty, ); --tw-backdrop-grayscale:var(--tw-empty, ); --tw-backdrop-hue-rotate:var(--tw-empty, ); --tw-backdrop-invert:var(--tw-empty, ); --tw-backdrop-opacity:var(--tw-empty, ); --tw-backdrop-saturate:var(--tw-empty, ); --tw-backdrop-sepia:var(--tw-empty, ); --tw-backdrop-filter:var(--tw-backdrop-blur) var(--tw-backdrop-brightness) var(--tw-backdrop-contrast) var(--tw-backdrop-grayscale) var(--tw-backdrop-hue-rotate) var(--tw-backdrop-invert) var(--tw-backdrop-opacity) var(--tw-backdrop-saturate) var(--tw-backdrop-sepia); margin-bottom: 0.5em; margin-top: 0.5em; padding-left: 1.75em; position: relative;&quot;&gt;&lt;code style=&quot;border-width: 0px; border-style: solid; border-color: rgba(229,231,235,var(--tw-border-opacity)); border-image: initial; box-sizing: border-box; --tw-translate-x:0; --tw-translate-y:0; --tw-rotate:0; --tw-skew-x:0; --tw-skew-y:0; --tw-scale-x:1; --tw-scale-y:1; --tw-transform:translateX(var(--tw-translate-x)) translateY(var(--tw-translate-y)) rotate(var(--tw-rotate)) skewX(var(--tw-skew-x)) skewY(var(--tw-skew-y)) scaleX(var(--tw-scale-x)) scaleY(var(--tw-scale-y)); --tw-border-opacity:1; --tw-ring-inset:var(--tw-empty, ); --tw-ring-offset-width:0px; --tw-ring-offset-color:#fff; --tw-ring-color:rgba(59,130,246,0.5); --tw-ring-offset-shadow:0 0 #0000; --tw-ring-shadow:0 0 #0000; --tw-shadow:0 0 #0000; --tw-blur:var(--tw-empty, ); --tw-brightness:var(--tw-empty, ); --tw-contrast:var(--tw-empty, ); --tw-grayscale:var(--tw-empty, ); --tw-hue-rotate:var(--tw-empty, ); --tw-invert:var(--tw-empty, ); --tw-saturate:var(--tw-empty, ); --tw-sepia:var(--tw-empty, ); --tw-drop-shadow:var(--tw-empty, ); --tw-filter:var(--tw-blur) var(--tw-brightness) var(--tw-contrast) var(--tw-grayscale) var(--tw-hue-rotate) var(--tw-invert) var(--tw-saturate) var(--tw-sepia) var(--tw-drop-shadow); --tw-backdrop-blur:var(--tw-empty, ); --tw-backdrop-brightness:var(--tw-empty, ); --tw-backdrop-contrast:var(--tw-empty, ); --tw-backdrop-grayscale:var(--tw-empty, ); --tw-backdrop-hue-rotate:var(--tw-empty, ); --tw-backdrop-invert:var(--tw-empty, ); --tw-backdrop-opacity:var(--tw-empty, ); --tw-backdrop-saturate:var(--tw-empty, ); --tw-backdrop-sepia:var(--tw-empty, ); --tw-backdrop-filter:var(--tw-backdrop-blur) var(--tw-backdrop-brightness) var(--tw-backdrop-contrast) var(--tw-backdrop-grayscale) var(--tw-backdrop-hue-rotate) var(--tw-backdrop-invert) var(--tw-backdrop-opacity) var(--tw-backdrop-saturate) var(--tw-backdrop-sepia); font-family: &amp;quot;IBM Plex Mono&amp;quot;, ui-monospace, SFMono-Regular, Menlo, Monaco, Consolas, &amp;quot;Liberation Mono&amp;quot;, &amp;quot;Courier New&amp;quot;, monospace; font-size: 0.875em; color: rgba(31,41,55,var(--tw-text-opacity)); --tw-text-opacity:1; margin-top: 1.25em;&quot;&gt;caption&lt;/code&gt;: a&amp;nbsp;&lt;code style=&quot;border-width: 0px; border-style: solid; border-color: rgba(229,231,235,var(--tw-border-opacity)); border-image: initial; box-sizing: border-box; --tw-translate-x:0; --tw-translate-y:0; --tw-rotate:0; --tw-skew-x:0; --tw-skew-y:0; --tw-scale-x:1; --tw-scale-y:1; --tw-transform:translateX(var(--tw-translate-x)) translateY(var(--tw-translate-y)) rotate(var(--tw-rotate)) skewX(var(--tw-skew-x)) skewY(var(--tw-skew-y)) scaleX(var(--tw-scale-x)) scaleY(var(--tw-scale-y)); --tw-border-opacity:1; --tw-ring-inset:var(--tw-empty, ); --tw-ring-offset-width:0px; --tw-ring-offset-color:#fff; --tw-ring-color:rgba(59,130,246,0.5); --tw-ring-offset-shadow:0 0 #0000; --tw-ring-shadow:0 0 #0000; --tw-shadow:0 0 #0000; --tw-blur:var(--tw-empty, ); --tw-brightness:var(--tw-empty, ); --tw-contrast:var(--tw-empty, ); --tw-grayscale:var(--tw-empty, ); --tw-hue-rotate:var(--tw-empty, ); --tw-invert:var(--tw-empty, ); --tw-saturate:var(--tw-empty, ); --tw-sepia:var(--tw-empty, ); --tw-drop-shadow:var(--tw-empty, ); --tw-filter:var(--tw-blur) var(--tw-brightness) var(--tw-contrast) var(--tw-grayscale) var(--tw-hue-rotate) var(--tw-invert) var(--tw-saturate) var(--tw-sepia) var(--tw-drop-shadow); --tw-backdrop-blur:var(--tw-empty, ); --tw-backdrop-brightness:var(--tw-empty, ); --tw-backdrop-contrast:var(--tw-empty, ); --tw-backdrop-grayscale:var(--tw-empty, ); --tw-backdrop-hue-rotate:var(--tw-empty, ); --tw-backdrop-invert:var(--tw-empty, ); --tw-backdrop-opacity:var(--tw-empty, ); --tw-backdrop-saturate:var(--tw-empty, ); --tw-backdrop-sepia:var(--tw-empty, ); --tw-backdrop-filter:var(--tw-backdrop-blur) var(--tw-backdrop-brightness) var(--tw-backdrop-contrast) var(--tw-backdrop-grayscale) var(--tw-backdrop-hue-rotate) var(--tw-backdrop-invert) var(--tw-backdrop-opacity) var(--tw-backdrop-saturate) var(--tw-backdrop-sepia); font-family: &amp;quot;IBM Plex Mono&amp;quot;, ui-monospace, SFMono-Regular, Menlo, Monaco, Consolas, &amp;quot;Liberation Mono&amp;quot;, &amp;quot;Courier New&amp;quot;, monospace; font-size: 0.875em; color: rgba(31,41,55,var(--tw-text-opacity)); --tw-text-opacity:1; margin-bottom: 1.25em;&quot;&gt;string&lt;/code&gt;&amp;nbsp;feature.&lt;/li&gt;&lt;li style=&quot;border-width: 0px; border-style: solid; border-color: rgba(229,231,235,var(--tw-border-opacity)); border-image: initial; box-sizing: border-box; --tw-translate-x:0; --tw-translate-y:0; --tw-rotate:0; --tw-skew-x:0; --tw-skew-y:0; --tw-scale-x:1; --tw-scale-y:1; --tw-transform:translateX(var(--tw-translate-x)) translateY(var(--tw-translate-y)) rotate(var(--tw-rotate)) skewX(var(--tw-skew-x)) skewY(var(--tw-skew-y)) scaleX(var(--tw-scale-x)) scaleY(var(--tw-scale-y)); --tw-border-opacity:1; --tw-ring-inset:var(--tw-empty, ); --tw-ring-offset-width:0px; --tw-ring-offset-color:#fff; --tw-ring-color:rgba(59,130,246,0.5); --tw-ring-offset-shadow:0 0 #0000; --tw-ring-shadow:0 0 #0000; --tw-shadow:0 0 #0000; --tw-blur:var(--tw-empty, ); --tw-brightness:var(--tw-empty, ); --tw-contrast:var(--tw-empty, ); --tw-grayscale:var(--tw-empty, ); --tw-hue-rotate:var(--tw-empty, ); --tw-invert:var(--tw-empty, ); --tw-saturate:var(--tw-empty, ); --tw-sepia:var(--tw-empty, ); --tw-drop-shadow:var(--tw-empty, ); --tw-filter:var(--tw-blur) var(--tw-brightness) var(--tw-contrast) var(--tw-grayscale) var(--tw-hue-rotate) var(--tw-invert) var(--tw-saturate) var(--tw-sepia) var(--tw-drop-shadow); --tw-backdrop-blur:var(--tw-empty, ); --tw-backdrop-brightness:var(--tw-empty, ); --tw-backdrop-contrast:var(--tw-empty, ); --tw-backdrop-grayscale:var(--tw-empty, ); --tw-backdrop-hue-rotate:var(--tw-empty, ); --tw-backdrop-invert:var(--tw-empty, ); --tw-backdrop-opacity:var(--tw-empty, ); --tw-backdrop-saturate:var(--tw-empty, ); --tw-backdrop-sepia:var(--tw-empty, ); --tw-backdrop-filter:var(--tw-backdrop-blur) var(--tw-backdrop-brightness) var(--tw-backdrop-contrast) var(--tw-backdrop-grayscale) var(--tw-backdrop-hue-rotate) var(--tw-backdrop-invert) var(--tw-backdrop-opacity) var(--tw-backdrop-saturate) var(--tw-backdrop-sepia); margin-bottom: 0.5em; margin-top: 0.5em; padding-left: 1.75em; position: relative;&quot;&gt;&lt;code style=&quot;border-width: 0px; border-style: solid; border-color: rgba(229,231,235,var(--tw-border-opacity)); border-image: initial; box-sizing: border-box; --tw-translate-x:0; --tw-translate-y:0; --tw-rotate:0; --tw-skew-x:0; --tw-skew-y:0; --tw-scale-x:1; --tw-scale-y:1; --tw-transform:translateX(var(--tw-translate-x)) translateY(var(--tw-translate-y)) rotate(var(--tw-rotate)) skewX(var(--tw-skew-x)) skewY(var(--tw-skew-y)) scaleX(var(--tw-scale-x)) scaleY(var(--tw-scale-y)); --tw-border-opacity:1; --tw-ring-inset:var(--tw-empty, ); --tw-ring-offset-width:0px; --tw-ring-offset-color:#fff; --tw-ring-color:rgba(59,130,246,0.5); --tw-ring-offset-shadow:0 0 #0000; --tw-ring-shadow:0 0 #0000; --tw-shadow:0 0 #0000; --tw-blur:var(--tw-empty, ); --tw-brightness:var(--tw-empty, ); --tw-contrast:var(--tw-empty, ); --tw-grayscale:var(--tw-empty, ); --tw-hue-rotate:var(--tw-empty, ); --tw-invert:var(--tw-empty, ); --tw-saturate:var(--tw-empty, ); --tw-sepia:var(--tw-empty, ); --tw-drop-shadow:var(--tw-empty, ); --tw-filter:var(--tw-blur) var(--tw-brightness) var(--tw-contrast) var(--tw-grayscale) var(--tw-hue-rotate) var(--tw-invert) var(--tw-saturate) var(--tw-sepia) var(--tw-drop-shadow); --tw-backdrop-blur:var(--tw-empty, ); --tw-backdrop-brightness:var(--tw-empty, ); --tw-backdrop-contrast:var(--tw-empty, ); --tw-backdrop-grayscale:var(--tw-empty, ); --tw-backdrop-hue-rotate:var(--tw-empty, ); --tw-backdrop-invert:var(--tw-empty, ); --tw-backdrop-opacity:var(--tw-empty, ); --tw-backdrop-saturate:var(--tw-empty, ); --tw-backdrop-sepia:var(--tw-empty, ); --tw-backdrop-filter:var(--tw-backdrop-blur) var(--tw-backdrop-brightness) var(--tw-backdrop-contrast) var(--tw-backdrop-grayscale) var(--tw-backdrop-hue-rotate) var(--tw-backdrop-invert) var(--tw-backdrop-opacity) var(--tw-backdrop-saturate) var(--tw-backdrop-sepia); font-family: &amp;quot;IBM Plex Mono&amp;quot;, ui-monospace, SFMono-Regular, Menlo, Monaco, Consolas, &amp;quot;Liberation Mono&amp;quot;, &amp;quot;Courier New&amp;quot;, monospace; font-size: 0.875em; color: rgba(31,41,55,var(--tw-text-opacity)); --tw-text-opacity:1; margin-top: 1.25em;&quot;&gt;rows&lt;/code&gt;: a dictionary feature containing:&lt;ul style=&quot;border-width: 0px; border-style: solid; border-color: rgba(229,231,235,var(--tw-border-opacity)); border-image: initial; box-sizing: border-box; --tw-translate-x:0; --tw-translate-y:0; --tw-rotate:0; --tw-skew-x:0; --tw-skew-y:0; --tw-scale-x:1; --tw-scale-y:1; --tw-transform:translateX(var(--tw-translate-x)) translateY(var(--tw-translate-y)) rotate(var(--tw-rotate)) skewX(var(--tw-skew-x)) skewY(var(--tw-skew-y)) scaleX(var(--tw-scale-x)) scaleY(var(--tw-scale-y)); --tw-border-opacity:1; --tw-ring-inset:var(--tw-empty, ); --tw-ring-offset-width:0px; --tw-ring-offset-color:#fff; --tw-ring-color:rgba(59,130,246,0.5); --tw-ring-offset-shadow:0 0 #0000; --tw-ring-shadow:0 0 #0000; --tw-shadow:0 0 #0000; --tw-blur:var(--tw-empty, ); --tw-brightness:var(--tw-empty, ); --tw-contrast:var(--tw-empty, ); --tw-grayscale:var(--tw-empty, ); --tw-hue-rotate:var(--tw-empty, ); --tw-invert:var(--tw-empty, ); --tw-saturate:var(--tw-empty, ); --tw-sepia:var(--tw-empty, ); --tw-drop-shadow:var(--tw-empty, ); --tw-filter:var(--tw-blur) var(--tw-brightness) var(--tw-contrast) var(--tw-grayscale) var(--tw-hue-rotate) var(--tw-invert) var(--tw-saturate) var(--tw-sepia) var(--tw-drop-shadow); --tw-backdrop-blur:var(--tw-empty, ); --tw-backdrop-brightness:var(--tw-empty, ); --tw-backdrop-contrast:var(--tw-empty, ); --tw-backdrop-grayscale:var(--tw-empty, ); --tw-backdrop-hue-rotate:var(--tw-empty, ); --tw-backdrop-invert:var(--tw-empty, ); --tw-backdrop-opacity:var(--tw-empty, ); --tw-backdrop-saturate:var(--tw-empty, ); --tw-backdrop-sepia:var(--tw-empty, ); --tw-backdrop-filter:var(--tw-backdrop-blur) var(--tw-backdrop-brightness) var(--tw-backdrop-contrast) var(--tw-backdrop-grayscale) var(--tw-backdrop-hue-rotate) var(--tw-backdrop-invert) var(--tw-backdrop-opacity) var(--tw-backdrop-saturate) var(--tw-backdrop-sepia); margin: 0.75em 0px 1.25em; padding: 0px; list-style: none;&quot;&gt;&lt;li style=&quot;border-width: 0px; border-style: solid; border-color: rgba(229,231,235,var(--tw-border-opacity)); border-image: initial; box-sizing: border-box; --tw-translate-x:0; --tw-translate-y:0; --tw-rotate:0; --tw-skew-x:0; --tw-skew-y:0; --tw-scale-x:1; --tw-scale-y:1; --tw-transform:translateX(var(--tw-translate-x)) translateY(var(--tw-translate-y)) rotate(var(--tw-rotate)) skewX(var(--tw-skew-x)) skewY(var(--tw-skew-y)) scaleX(var(--tw-scale-x)) scaleY(var(--tw-scale-y)); --tw-border-opacity:1; --tw-ring-inset:var(--tw-empty, ); --tw-ring-offset-width:0px; --tw-ring-offset-color:#fff; --tw-ring-color:rgba(59,130,246,0.5); --tw-ring-offset-shadow:0 0 #0000; --tw-ring-shadow:0 0 #0000; --tw-shadow:0 0 #0000; --tw-blur:var(--tw-empty, ); --tw-brightness:var(--tw-empty, ); --tw-contrast:var(--tw-empty, ); --tw-grayscale:var(--tw-empty, ); --tw-hue-rotate:var(--tw-empty, ); --tw-invert:var(--tw-empty, ); --tw-saturate:var(--tw-empty, ); --tw-sepia:var(--tw-empty, ); --tw-drop-shadow:var(--tw-empty, ); --tw-filter:var(--tw-blur) var(--tw-brightness) var(--tw-contrast) var(--tw-grayscale) var(--tw-hue-rotate) var(--tw-invert) var(--tw-saturate) var(--tw-sepia) var(--tw-drop-shadow); --tw-backdrop-blur:var(--tw-empty, ); --tw-backdrop-brightness:var(--tw-empty, ); --tw-backdrop-contrast:var(--tw-empty, ); --tw-backdrop-grayscale:var(--tw-empty, ); --tw-backdrop-hue-rotate:var(--tw-empty, ); --tw-backdrop-invert:var(--tw-empty, ); --tw-backdrop-opacity:var(--tw-empty, ); --tw-backdrop-saturate:var(--tw-empty, ); --tw-backdrop-sepia:var(--tw-empty, ); --tw-backdrop-filter:var(--tw-backdrop-blur) var(--tw-backdrop-brightness) var(--tw-backdrop-contrast) var(--tw-backdrop-grayscale) var(--tw-backdrop-hue-rotate) var(--tw-backdrop-invert) var(--tw-backdrop-opacity) var(--tw-backdrop-saturate) var(--tw-backdrop-sepia); margin-bottom: 0.5em; margin-top: 0.5em; padding-left: 1.75em; position: relative;&quot;&gt;&lt;code style=&quot;border-width: 0px; border-style: solid; border-color: rgba(229,231,235,var(--tw-border-opacity)); border-image: initial; box-sizing: border-box; --tw-translate-x:0; --tw-translate-y:0; --tw-rotate:0; --tw-skew-x:0; --tw-skew-y:0; --tw-scale-x:1; --tw-scale-y:1; --tw-transform:translateX(var(--tw-translate-x)) translateY(var(--tw-translate-y)) rotate(var(--tw-rotate)) skewX(var(--tw-skew-x)) skewY(var(--tw-skew-y)) scaleX(var(--tw-scale-x)) scaleY(var(--tw-scale-y)); --tw-border-opacity:1; --tw-ring-inset:var(--tw-empty, ); --tw-ring-offset-width:0px; --tw-ring-offset-color:#fff; --tw-ring-color:rgba(59,130,246,0.5); --tw-ring-offset-shadow:0 0 #0000; --tw-ring-shadow:0 0 #0000; --tw-shadow:0 0 #0000; --tw-blur:var(--tw-empty, ); --tw-brightness:var(--tw-empty, ); --tw-contrast:var(--tw-empty, ); --tw-grayscale:var(--tw-empty, ); --tw-hue-rotate:var(--tw-empty, ); --tw-invert:var(--tw-empty, ); --tw-saturate:var(--tw-empty, ); --tw-sepia:var(--tw-empty, ); --tw-drop-shadow:var(--tw-empty, ); --tw-filter:var(--tw-blur) var(--tw-brightness) var(--tw-contrast) var(--tw-grayscale) var(--tw-hue-rotate) var(--tw-invert) var(--tw-saturate) var(--tw-sepia) var(--tw-drop-shadow); --tw-backdrop-blur:var(--tw-empty, ); --tw-backdrop-brightness:var(--tw-empty, ); --tw-backdrop-contrast:var(--tw-empty, ); --tw-backdrop-grayscale:var(--tw-empty, ); --tw-backdrop-hue-rotate:var(--tw-empty, ); --tw-backdrop-invert:var(--tw-empty, ); --tw-backdrop-opacity:var(--tw-empty, ); --tw-backdrop-saturate:var(--tw-empty, ); --tw-backdrop-sepia:var(--tw-empty, ); --tw-backdrop-filter:var(--tw-backdrop-blur) var(--tw-backdrop-brightness) var(--tw-backdrop-contrast) var(--tw-backdrop-grayscale) var(--tw-backdrop-hue-rotate) var(--tw-backdrop-invert) var(--tw-backdrop-opacity) var(--tw-backdrop-saturate) var(--tw-backdrop-sepia); font-family: &amp;quot;IBM Plex Mono&amp;quot;, ui-monospace, SFMono-Regular, Menlo, Monaco, Consolas, &amp;quot;Liberation Mono&amp;quot;, &amp;quot;Courier New&amp;quot;, monospace; font-size: 0.875em; color: rgba(31,41,55,var(--tw-text-opacity)); --tw-text-opacity:1;&quot;&gt;feature&lt;/code&gt;: a&amp;nbsp;&lt;code style=&quot;border-width: 0px; border-style: solid; border-color: rgba(229,231,235,var(--tw-border-opacity)); border-image: initial; box-sizing: border-box; --tw-translate-x:0; --tw-translate-y:0; --tw-rotate:0; --tw-skew-x:0; --tw-skew-y:0; --tw-scale-x:1; --tw-scale-y:1; --tw-transform:translateX(var(--tw-translate-x)) translateY(var(--tw-translate-y)) rotate(var(--tw-rotate)) skewX(var(--tw-skew-x)) skewY(var(--tw-skew-y)) scaleX(var(--tw-scale-x)) scaleY(var(--tw-scale-y)); --tw-border-opacity:1; --tw-ring-inset:var(--tw-empty, ); --tw-ring-offset-width:0px; --tw-ring-offset-color:#fff; --tw-ring-color:rgba(59,130,246,0.5); --tw-ring-offset-shadow:0 0 #0000; --tw-ring-shadow:0 0 #0000; --tw-shadow:0 0 #0000; --tw-blur:var(--tw-empty, ); --tw-brightness:var(--tw-empty, ); --tw-contrast:var(--tw-empty, ); --tw-grayscale:var(--tw-empty, ); --tw-hue-rotate:var(--tw-empty, ); --tw-invert:var(--tw-empty, ); --tw-saturate:var(--tw-empty, ); --tw-sepia:var(--tw-empty, ); --tw-drop-shadow:var(--tw-empty, ); --tw-filter:var(--tw-blur) var(--tw-brightness) var(--tw-contrast) var(--tw-grayscale) var(--tw-hue-rotate) var(--tw-invert) var(--tw-saturate) var(--tw-sepia) var(--tw-drop-shadow); --tw-backdrop-blur:var(--tw-empty, ); --tw-backdrop-brightness:var(--tw-empty, ); --tw-backdrop-contrast:var(--tw-empty, ); --tw-backdrop-grayscale:var(--tw-empty, ); --tw-backdrop-hue-rotate:var(--tw-empty, ); --tw-backdrop-invert:var(--tw-empty, ); --tw-backdrop-opacity:var(--tw-empty, ); --tw-backdrop-saturate:var(--tw-empty, ); --tw-backdrop-sepia:var(--tw-empty, ); --tw-backdrop-filter:var(--tw-backdrop-blur) var(--tw-backdrop-brightness) var(--tw-backdrop-contrast) var(--tw-backdrop-grayscale) var(--tw-backdrop-hue-rotate) var(--tw-backdrop-invert) var(--tw-backdrop-opacity) var(--tw-backdrop-saturate) var(--tw-backdrop-sepia); font-family: &amp;quot;IBM Plex Mono&amp;quot;, ui-monospace, SFMono-Regular, Menlo, Monaco, Consolas, &amp;quot;Liberation Mono&amp;quot;, &amp;quot;Courier New&amp;quot;, monospace; font-size: 0.875em; color: rgba(31,41,55,var(--tw-text-opacity)); --tw-text-opacity:1;&quot;&gt;string&lt;/code&gt;&amp;nbsp;feature.&lt;/li&gt;&lt;/ul&gt;&lt;/li&gt;&lt;li style=&quot;border-width: 0px; border-style: solid; border-color: rgba(229,231,235,var(--tw-border-opacity)); border-image: initial; box-sizing: border-box; --tw-translate-x:0; --tw-translate-y:0; --tw-rotate:0; --tw-skew-x:0; --tw-skew-y:0; --tw-scale-x:1; --tw-scale-y:1; --tw-transform:translateX(var(--tw-translate-x)) translateY(var(--tw-translate-y)) rotate(var(--tw-rotate)) skewX(var(--tw-skew-x)) skewY(var(--tw-skew-y)) scaleX(var(--tw-scale-x)) scaleY(var(--tw-scale-y)); --tw-border-opacity:1; --tw-ring-inset:var(--tw-empty, ); --tw-ring-offset-width:0px; --tw-ring-offset-color:#fff; --tw-ring-color:rgba(59,130,246,0.5); --tw-ring-offset-shadow:0 0 #0000; --tw-ring-shadow:0 0 #0000; --tw-shadow:0 0 #0000; --tw-blur:var(--tw-empty, ); --tw-brightness:var(--tw-empty, ); --tw-contrast:var(--tw-empty, ); --tw-grayscale:var(--tw-empty, ); --tw-hue-rotate:var(--tw-empty, ); --tw-invert:var(--tw-empty, ); --tw-saturate:var(--tw-empty, ); --tw-sepia:var(--tw-empty, ); --tw-drop-shadow:var(--tw-empty, ); --tw-filter:var(--tw-blur) var(--tw-brightness) var(--tw-contrast) var(--tw-grayscale) var(--tw-hue-rotate) var(--tw-invert) var(--tw-saturate) var(--tw-sepia) var(--tw-drop-shadow); --tw-backdrop-blur:var(--tw-empty, ); --tw-backdrop-brightness:var(--tw-empty, ); --tw-backdrop-contrast:var(--tw-empty, ); --tw-backdrop-grayscale:var(--tw-empty, ); --tw-backdrop-hue-rotate:var(--tw-empty, ); --tw-backdrop-invert:var(--tw-empty, ); --tw-backdrop-opacity:var(--tw-empty, ); --tw-backdrop-saturate:var(--tw-empty, ); --tw-backdrop-sepia:var(--tw-empty, ); --tw-backdrop-filter:var(--tw-backdrop-blur) var(--tw-backdrop-brightness) var(--tw-backdrop-contrast) var(--tw-backdrop-grayscale) var(--tw-backdrop-hue-rotate) var(--tw-backdrop-invert) var(--tw-backdrop-opacity) var(--tw-backdrop-saturate) var(--tw-backdrop-sepia); margin-bottom: 0.5em; margin-top: 0.5em; padding-left: 1.75em; position: relative;&quot;&gt;&lt;code style=&quot;border-width: 0px; border-style: solid; border-color: rgba(229,231,235,var(--tw-border-opacity)); border-image: initial; box-sizing: border-box; --tw-translate-x:0; --tw-translate-y:0; --tw-rotate:0; --tw-skew-x:0; --tw-skew-y:0; --tw-scale-x:1; --tw-scale-y:1; --tw-transform:translateX(var(--tw-translate-x)) translateY(var(--tw-translate-y)) rotate(var(--tw-rotate)) skewX(var(--tw-skew-x)) skewY(var(--tw-skew-y)) scaleX(var(--tw-scale-x)) scaleY(var(--tw-scale-y)); --tw-border-opacity:1; --tw-ring-inset:var(--tw-empty, ); --tw-ring-offset-width:0px; --tw-ring-offset-color:#fff; --tw-ring-color:rgba(59,130,246,0.5); --tw-ring-offset-shadow:0 0 #0000; --tw-ring-shadow:0 0 #0000; --tw-shadow:0 0 #0000; --tw-blur:var(--tw-empty, ); --tw-brightness:var(--tw-empty, ); --tw-contrast:var(--tw-empty, ); --tw-grayscale:var(--tw-empty, ); --tw-hue-rotate:var(--tw-empty, ); --tw-invert:var(--tw-empty, ); --tw-saturate:var(--tw-empty, ); --tw-sepia:var(--tw-empty, ); --tw-drop-shadow:var(--tw-empty, ); --tw-filter:var(--tw-blur) var(--tw-brightness) var(--tw-contrast) var(--tw-grayscale) var(--tw-hue-rotate) var(--tw-invert) var(--tw-saturate) var(--tw-sepia) var(--tw-drop-shadow); --tw-backdrop-blur:var(--tw-empty, ); --tw-backdrop-brightness:var(--tw-empty, ); --tw-backdrop-contrast:var(--tw-empty, ); --tw-backdrop-grayscale:var(--tw-empty, ); --tw-backdrop-hue-rotate:var(--tw-empty, ); --tw-backdrop-invert:var(--tw-empty, ); --tw-backdrop-opacity:var(--tw-empty, ); --tw-backdrop-saturate:var(--tw-empty, ); --tw-backdrop-sepia:var(--tw-empty, ); --tw-backdrop-filter:var(--tw-backdrop-blur) var(--tw-backdrop-brightness) var(--tw-backdrop-contrast) var(--tw-backdrop-grayscale) var(--tw-backdrop-hue-rotate) var(--tw-backdrop-invert) var(--tw-backdrop-opacity) var(--tw-backdrop-saturate) var(--tw-backdrop-sepia); font-family: &amp;quot;IBM Plex Mono&amp;quot;, ui-monospace, SFMono-Regular, Menlo, Monaco, Consolas, &amp;quot;Liberation Mono&amp;quot;, &amp;quot;Courier New&amp;quot;, monospace; font-size: 0.875em; color: rgba(31,41,55,var(--tw-text-opacity)); --tw-text-opacity:1; margin-top: 1.25em;&quot;&gt;name&lt;/code&gt;: a&amp;nbsp;&lt;code style=&quot;border-width: 0px; border-style: solid; border-color: rgba(229,231,235,var(--tw-border-opacity)); border-image: initial; box-sizing: border-box; --tw-translate-x:0; --tw-translate-y:0; --tw-rotate:0; --tw-skew-x:0; --tw-skew-y:0; --tw-scale-x:1; --tw-scale-y:1; --tw-transform:translateX(var(--tw-translate-x)) translateY(var(--tw-translate-y)) rotate(var(--tw-rotate)) skewX(var(--tw-skew-x)) skewY(var(--tw-skew-y)) scaleX(var(--tw-scale-x)) scaleY(var(--tw-scale-y)); --tw-border-opacity:1; --tw-ring-inset:var(--tw-empty, ); --tw-ring-offset-width:0px; --tw-ring-offset-color:#fff; --tw-ring-color:rgba(59,130,246,0.5); --tw-ring-offset-shadow:0 0 #0000; --tw-ring-shadow:0 0 #0000; --tw-shadow:0 0 #0000; --tw-blur:var(--tw-empty, ); --tw-brightness:var(--tw-empty, ); --tw-contrast:var(--tw-empty, ); --tw-grayscale:var(--tw-empty, ); --tw-hue-rotate:var(--tw-empty, ); --tw-invert:var(--tw-empty, ); --tw-saturate:var(--tw-empty, ); --tw-sepia:var(--tw-empty, ); --tw-drop-shadow:var(--tw-empty, ); --tw-filter:var(--tw-blur) var(--tw-brightness) var(--tw-contrast) var(--tw-grayscale) var(--tw-hue-rotate) var(--tw-invert) var(--tw-saturate) var(--tw-sepia) var(--tw-drop-shadow); --tw-backdrop-blur:var(--tw-empty, ); --tw-backdrop-brightness:var(--tw-empty, ); --tw-backdrop-contrast:var(--tw-empty, ); --tw-backdrop-grayscale:var(--tw-empty, ); --tw-backdrop-hue-rotate:var(--tw-empty, ); --tw-backdrop-invert:var(--tw-empty, ); --tw-backdrop-opacity:var(--tw-empty, ); --tw-backdrop-saturate:var(--tw-empty, ); --tw-backdrop-sepia:var(--tw-empty, ); --tw-backdrop-filter:var(--tw-backdrop-blur) var(--tw-backdrop-brightness) var(--tw-backdrop-contrast) var(--tw-backdrop-grayscale) var(--tw-backdrop-hue-rotate) var(--tw-backdrop-invert) var(--tw-backdrop-opacity) var(--tw-backdrop-saturate) var(--tw-backdrop-sepia); font-family: &amp;quot;IBM Plex Mono&amp;quot;, ui-monospace, SFMono-Regular, Menlo, Monaco, Consolas, &amp;quot;Liberation Mono&amp;quot;, &amp;quot;Courier New&amp;quot;, monospace; font-size: 0.875em; color: rgba(31,41,55,var(--tw-text-opacity)); --tw-text-opacity:1; margin-bottom: 1.25em;&quot;&gt;string&lt;/code&gt;&amp;nbsp;feature.&lt;/li&gt;&lt;li style=&quot;border-width: 0px; border-style: solid; border-color: rgba(229,231,235,var(--tw-border-opacity)); border-image: initial; box-sizing: border-box; --tw-translate-x:0; --tw-translate-y:0; --tw-rotate:0; --tw-skew-x:0; --tw-skew-y:0; --tw-scale-x:1; --tw-scale-y:1; --tw-transform:translateX(var(--tw-translate-x)) translateY(var(--tw-translate-y)) rotate(var(--tw-rotate)) skewX(var(--tw-skew-x)) skewY(var(--tw-skew-y)) scaleX(var(--tw-scale-x)) scaleY(var(--tw-scale-y)); --tw-border-opacity:1; --tw-ring-inset:var(--tw-empty, ); --tw-ring-offset-width:0px; --tw-ring-offset-color:#fff; --tw-ring-color:rgba(59,130,246,0.5); --tw-ring-offset-shadow:0 0 #0000; --tw-ring-shadow:0 0 #0000; --tw-shadow:0 0 #0000; --tw-blur:var(--tw-empty, ); --tw-brightness:var(--tw-empty, ); --tw-contrast:var(--tw-empty, ); --tw-grayscale:var(--tw-empty, ); --tw-hue-rotate:var(--tw-empty, ); --tw-invert:var(--tw-empty, ); --tw-saturate:var(--tw-empty, ); --tw-sepia:var(--tw-empty, ); --tw-drop-shadow:var(--tw-empty, ); --tw-filter:var(--tw-blur) var(--tw-brightness) var(--tw-contrast) var(--tw-grayscale) var(--tw-hue-rotate) var(--tw-invert) var(--tw-saturate) var(--tw-sepia) var(--tw-drop-shadow); --tw-backdrop-blur:var(--tw-empty, ); --tw-backdrop-brightness:var(--tw-empty, ); --tw-backdrop-contrast:var(--tw-empty, ); --tw-backdrop-grayscale:var(--tw-empty, ); --tw-backdrop-hue-rotate:var(--tw-empty, ); --tw-backdrop-invert:var(--tw-empty, ); --tw-backdrop-opacity:var(--tw-empty, ); --tw-backdrop-saturate:var(--tw-empty, ); --tw-backdrop-sepia:var(--tw-empty, ); --tw-backdrop-filter:var(--tw-backdrop-blur) var(--tw-backdrop-brightness) var(--tw-backdrop-contrast) var(--tw-backdrop-grayscale) var(--tw-backdrop-hue-rotate) var(--tw-backdrop-invert) var(--tw-backdrop-opacity) var(--tw-backdrop-saturate) var(--tw-backdrop-sepia); margin-bottom: 0.5em; margin-top: 0.5em; padding-left: 1.75em; position: relative;&quot;&gt;&lt;code style=&quot;border-width: 0px; border-style: solid; border-color: rgba(229,231,235,var(--tw-border-opacity)); border-image: initial; box-sizing: border-box; --tw-translate-x:0; --tw-translate-y:0; --tw-rotate:0; --tw-skew-x:0; --tw-skew-y:0; --tw-scale-x:1; --tw-scale-y:1; --tw-transform:translateX(var(--tw-translate-x)) translateY(var(--tw-translate-y)) rotate(var(--tw-rotate)) skewX(var(--tw-skew-x)) skewY(var(--tw-skew-y)) scaleX(var(--tw-scale-x)) scaleY(var(--tw-scale-y)); --tw-border-opacity:1; --tw-ring-inset:var(--tw-empty, ); --tw-ring-offset-width:0px; --tw-ring-offset-color:#fff; --tw-ring-color:rgba(59,130,246,0.5); --tw-ring-offset-shadow:0 0 #0000; --tw-ring-shadow:0 0 #0000; --tw-shadow:0 0 #0000; --tw-blur:var(--tw-empty, ); --tw-brightness:var(--tw-empty, ); --tw-contrast:var(--tw-empty, ); --tw-grayscale:var(--tw-empty, ); --tw-hue-rotate:var(--tw-empty, ); --tw-invert:var(--tw-empty, ); --tw-saturate:var(--tw-empty, ); --tw-sepia:var(--tw-empty, ); --tw-drop-shadow:var(--tw-empty, ); --tw-filter:var(--tw-blur) var(--tw-brightness) var(--tw-contrast) var(--tw-grayscale) var(--tw-hue-rotate) var(--tw-invert) var(--tw-saturate) var(--tw-sepia) var(--tw-drop-shadow); --tw-backdrop-blur:var(--tw-empty, ); --tw-backdrop-brightness:var(--tw-empty, ); --tw-backdrop-contrast:var(--tw-empty, ); --tw-backdrop-grayscale:var(--tw-empty, ); --tw-backdrop-hue-rotate:var(--tw-empty, ); --tw-backdrop-invert:var(--tw-empty, ); --tw-backdrop-opacity:var(--tw-empty, ); --tw-backdrop-saturate:var(--tw-empty, ); --tw-backdrop-sepia:var(--tw-empty, ); --tw-backdrop-filter:var(--tw-backdrop-blur) var(--tw-backdrop-brightness) var(--tw-backdrop-contrast) var(--tw-backdrop-grayscale) var(--tw-backdrop-hue-rotate) var(--tw-backdrop-invert) var(--tw-backdrop-opacity) var(--tw-backdrop-saturate) var(--tw-backdrop-sepia); font-family: &amp;quot;IBM Plex Mono&amp;quot;, ui-monospace, SFMono-Regular, Menlo, Monaco, Consolas, &amp;quot;Liberation Mono&amp;quot;, &amp;quot;Courier New&amp;quot;, monospace; font-size: 0.875em; color: rgba(31,41,55,var(--tw-text-opacity)); --tw-text-opacity:1; margin-top: 1.25em;&quot;&gt;human_readable&lt;/code&gt;: a&amp;nbsp;&lt;code style=&quot;border-width: 0px; border-style: solid; border-color: rgba(229,231,235,var(--tw-border-opacity)); border-image: initial; box-sizing: border-box; --tw-translate-x:0; --tw-translate-y:0; --tw-rotate:0; --tw-skew-x:0; --tw-skew-y:0; --tw-scale-x:1; --tw-scale-y:1; --tw-transform:translateX(var(--tw-translate-x)) translateY(var(--tw-translate-y)) rotate(var(--tw-rotate)) skewX(var(--tw-skew-x)) skewY(var(--tw-skew-y)) scaleX(var(--tw-scale-x)) scaleY(var(--tw-scale-y)); --tw-border-opacity:1; --tw-ring-inset:var(--tw-empty, ); --tw-ring-offset-width:0px; --tw-ring-offset-color:#fff; --tw-ring-color:rgba(59,130,246,0.5); --tw-ring-offset-shadow:0 0 #0000; --tw-ring-shadow:0 0 #0000; --tw-shadow:0 0 #0000; --tw-blur:var(--tw-empty, ); --tw-brightness:var(--tw-empty, ); --tw-contrast:var(--tw-empty, ); --tw-grayscale:var(--tw-empty, ); --tw-hue-rotate:var(--tw-empty, ); --tw-invert:var(--tw-empty, ); --tw-saturate:var(--tw-empty, ); --tw-sepia:var(--tw-empty, ); --tw-drop-shadow:var(--tw-empty, ); --tw-filter:var(--tw-blur) var(--tw-brightness) var(--tw-contrast) var(--tw-grayscale) var(--tw-hue-rotate) var(--tw-invert) var(--tw-saturate) var(--tw-sepia) var(--tw-drop-shadow); --tw-backdrop-blur:var(--tw-empty, ); --tw-backdrop-brightness:var(--tw-empty, ); --tw-backdrop-contrast:var(--tw-empty, ); --tw-backdrop-grayscale:var(--tw-empty, ); --tw-backdrop-hue-rotate:var(--tw-empty, ); --tw-backdrop-invert:var(--tw-empty, ); --tw-backdrop-opacity:var(--tw-empty, ); --tw-backdrop-saturate:var(--tw-empty, ); --tw-backdrop-sepia:var(--tw-empty, ); --tw-backdrop-filter:var(--tw-backdrop-blur) var(--tw-backdrop-brightness) var(--tw-backdrop-contrast) var(--tw-backdrop-grayscale) var(--tw-backdrop-hue-rotate) var(--tw-backdrop-invert) var(--tw-backdrop-opacity) var(--tw-backdrop-saturate) var(--tw-backdrop-sepia); font-family: &amp;quot;IBM Plex Mono&amp;quot;, ui-monospace, SFMono-Regular, Menlo, Monaco, Consolas, &amp;quot;Liberation Mono&amp;quot;, &amp;quot;Courier New&amp;quot;, monospace; font-size: 0.875em; color: rgba(31,41,55,var(--tw-text-opacity)); --tw-text-opacity:1; margin-bottom: 1.25em;&quot;&gt;string&lt;/code&gt;&amp;nbsp;feature.&lt;/li&gt;&lt;li style=&quot;border-width: 0px; border-style: solid; border-color: rgba(229,231,235,var(--tw-border-opacity)); border-image: initial; box-sizing: border-box; --tw-translate-x:0; --tw-translate-y:0; --tw-rotate:0; --tw-skew-x:0; --tw-skew-y:0; --tw-scale-x:1; --tw-scale-y:1; --tw-transform:translateX(var(--tw-translate-x)) translateY(var(--tw-translate-y)) rotate(var(--tw-rotate)) skewX(var(--tw-skew-x)) skewY(var(--tw-skew-y)) scaleX(var(--tw-scale-x)) scaleY(var(--tw-scale-y)); --tw-border-opacity:1; --tw-ring-inset:var(--tw-empty, ); --tw-ring-offset-width:0px; --tw-ring-offset-color:#fff; --tw-ring-color:rgba(59,130,246,0.5); --tw-ring-offset-shadow:0 0 #0000; --tw-ring-shadow:0 0 #0000; --tw-shadow:0 0 #0000; --tw-blur:var(--tw-empty, ); --tw-brightness:var(--tw-empty, ); --tw-contrast:var(--tw-empty, ); --tw-grayscale:var(--tw-empty, ); --tw-hue-rotate:var(--tw-empty, ); --tw-invert:var(--tw-empty, ); --tw-saturate:var(--tw-empty, ); --tw-sepia:var(--tw-empty, ); --tw-drop-shadow:var(--tw-empty, ); --tw-filter:var(--tw-blur) var(--tw-brightness) var(--tw-contrast) var(--tw-grayscale) var(--tw-hue-rotate) var(--tw-invert) var(--tw-saturate) var(--tw-sepia) var(--tw-drop-shadow); --tw-backdrop-blur:var(--tw-empty, ); --tw-backdrop-brightness:var(--tw-empty, ); --tw-backdrop-contrast:var(--tw-empty, ); --tw-backdrop-grayscale:var(--tw-empty, ); --tw-backdrop-hue-rotate:var(--tw-empty, ); --tw-backdrop-invert:var(--tw-empty, ); --tw-backdrop-opacity:var(--tw-empty, ); --tw-backdrop-saturate:var(--tw-empty, ); --tw-backdrop-sepia:var(--tw-empty, ); --tw-backdrop-filter:var(--tw-backdrop-blur) var(--tw-backdrop-brightness) var(--tw-backdrop-contrast) var(--tw-backdrop-grayscale) var(--tw-backdrop-hue-rotate) var(--tw-backdrop-invert) var(--tw-backdrop-opacity) var(--tw-backdrop-saturate) var(--tw-backdrop-sepia); margin-bottom: 0.5em; margin-top: 0.5em; padding-left: 1.75em; position: relative;&quot;&gt;&lt;code style=&quot;border-width: 0px; border-style: solid; border-color: rgba(229,231,235,var(--tw-border-opacity)); border-image: initial; box-sizing: border-box; --tw-translate-x:0; --tw-translate-y:0; --tw-rotate:0; --tw-skew-x:0; --tw-skew-y:0; --tw-scale-x:1; --tw-scale-y:1; --tw-transform:translateX(var(--tw-translate-x)) translateY(var(--tw-translate-y)) rotate(var(--tw-rotate)) skewX(var(--tw-skew-x)) skewY(var(--tw-skew-y)) scaleX(var(--tw-scale-x)) scaleY(var(--tw-scale-y)); --tw-border-opacity:1; --tw-ring-inset:var(--tw-empty, ); --tw-ring-offset-width:0px; --tw-ring-offset-color:#fff; --tw-ring-color:rgba(59,130,246,0.5); --tw-ring-offset-shadow:0 0 #0000; --tw-ring-shadow:0 0 #0000; --tw-shadow:0 0 #0000; --tw-blur:var(--tw-empty, ); --tw-brightness:var(--tw-empty, ); --tw-contrast:var(--tw-empty, ); --tw-grayscale:var(--tw-empty, ); --tw-hue-rotate:var(--tw-empty, ); --tw-invert:var(--tw-empty, ); --tw-saturate:var(--tw-empty, ); --tw-sepia:var(--tw-empty, ); --tw-drop-shadow:var(--tw-empty, ); --tw-filter:var(--tw-blur) var(--tw-brightness) var(--tw-contrast) var(--tw-grayscale) var(--tw-hue-rotate) var(--tw-invert) var(--tw-saturate) var(--tw-sepia) var(--tw-drop-shadow); --tw-backdrop-blur:var(--tw-empty, ); --tw-backdrop-brightness:var(--tw-empty, ); --tw-backdrop-contrast:var(--tw-empty, ); --tw-backdrop-grayscale:var(--tw-empty, ); --tw-backdrop-hue-rotate:var(--tw-empty, ); --tw-backdrop-invert:var(--tw-empty, ); --tw-backdrop-opacity:var(--tw-empty, ); --tw-backdrop-saturate:var(--tw-empty, ); --tw-backdrop-sepia:var(--tw-empty, ); --tw-backdrop-filter:var(--tw-backdrop-blur) var(--tw-backdrop-brightness) var(--tw-backdrop-contrast) var(--tw-backdrop-grayscale) var(--tw-backdrop-hue-rotate) var(--tw-backdrop-invert) var(--tw-backdrop-opacity) var(--tw-backdrop-saturate) var(--tw-backdrop-sepia); font-family: &amp;quot;IBM Plex Mono&amp;quot;, ui-monospace, SFMono-Regular, Menlo, Monaco, Consolas, &amp;quot;Liberation Mono&amp;quot;, &amp;quot;Courier New&amp;quot;, monospace; font-size: 0.875em; color: rgba(31,41,55,var(--tw-text-opacity)); --tw-text-opacity:1; margin-top: 1.25em;&quot;&gt;sel&lt;/code&gt;: a&amp;nbsp;&lt;code style=&quot;border-width: 0px; border-style: solid; border-color: rgba(229,231,235,var(--tw-border-opacity)); border-image: initial; box-sizing: border-box; --tw-translate-x:0; --tw-translate-y:0; --tw-rotate:0; --tw-skew-x:0; --tw-skew-y:0; --tw-scale-x:1; --tw-scale-y:1; --tw-transform:translateX(var(--tw-translate-x)) translateY(var(--tw-translate-y)) rotate(var(--tw-rotate)) skewX(var(--tw-skew-x)) skewY(var(--tw-skew-y)) scaleX(var(--tw-scale-x)) scaleY(var(--tw-scale-y)); --tw-border-opacity:1; --tw-ring-inset:var(--tw-empty, ); --tw-ring-offset-width:0px; --tw-ring-offset-color:#fff; --tw-ring-color:rgba(59,130,246,0.5); --tw-ring-offset-shadow:0 0 #0000; --tw-ring-shadow:0 0 #0000; --tw-shadow:0 0 #0000; --tw-blur:var(--tw-empty, ); --tw-brightness:var(--tw-empty, ); --tw-contrast:var(--tw-empty, ); --tw-grayscale:var(--tw-empty, ); --tw-hue-rotate:var(--tw-empty, ); --tw-invert:var(--tw-empty, ); --tw-saturate:var(--tw-empty, ); --tw-sepia:var(--tw-empty, ); --tw-drop-shadow:var(--tw-empty, ); --tw-filter:var(--tw-blur) var(--tw-brightness) var(--tw-contrast) var(--tw-grayscale) var(--tw-hue-rotate) var(--tw-invert) var(--tw-saturate) var(--tw-sepia) var(--tw-drop-shadow); --tw-backdrop-blur:var(--tw-empty, ); --tw-backdrop-brightness:var(--tw-empty, ); --tw-backdrop-contrast:var(--tw-empty, ); --tw-backdrop-grayscale:var(--tw-empty, ); --tw-backdrop-hue-rotate:var(--tw-empty, ); --tw-backdrop-invert:var(--tw-empty, ); --tw-backdrop-opacity:var(--tw-empty, ); --tw-backdrop-saturate:var(--tw-empty, ); --tw-backdrop-sepia:var(--tw-empty, ); --tw-backdrop-filter:var(--tw-backdrop-blur) var(--tw-backdrop-brightness) var(--tw-backdrop-contrast) var(--tw-backdrop-grayscale) var(--tw-backdrop-hue-rotate) var(--tw-backdrop-invert) var(--tw-backdrop-opacity) var(--tw-backdrop-saturate) var(--tw-backdrop-sepia); font-family: &amp;quot;IBM Plex Mono&amp;quot;, ui-monospace, SFMono-Regular, Menlo, Monaco, Consolas, &amp;quot;Liberation Mono&amp;quot;, &amp;quot;Courier New&amp;quot;, monospace; font-size: 0.875em; color: rgba(31,41,55,var(--tw-text-opacity)); --tw-text-opacity:1; margin-bottom: 1.25em;&quot;&gt;int32&lt;/code&gt;&amp;nbsp;feature.&lt;/li&gt;&lt;li style=&quot;border-width: 0px; border-style: solid; border-color: rgba(229,231,235,var(--tw-border-opacity)); border-image: initial; box-sizing: border-box; --tw-translate-x:0; --tw-translate-y:0; --tw-rotate:0; --tw-skew-x:0; --tw-skew-y:0; --tw-scale-x:1; --tw-scale-y:1; --tw-transform:translateX(var(--tw-translate-x)) translateY(var(--tw-translate-y)) rotate(var(--tw-rotate)) skewX(var(--tw-skew-x)) skewY(var(--tw-skew-y)) scaleX(var(--tw-scale-x)) scaleY(var(--tw-scale-y)); --tw-border-opacity:1; --tw-ring-inset:var(--tw-empty, ); --tw-ring-offset-width:0px; --tw-ring-offset-color:#fff; --tw-ring-color:rgba(59,130,246,0.5); --tw-ring-offset-shadow:0 0 #0000; --tw-ring-shadow:0 0 #0000; --tw-shadow:0 0 #0000; --tw-blur:var(--tw-empty, ); --tw-brightness:var(--tw-empty, ); --tw-contrast:var(--tw-empty, ); --tw-grayscale:var(--tw-empty, ); --tw-hue-rotate:var(--tw-empty, ); --tw-invert:var(--tw-empty, ); --tw-saturate:var(--tw-empty, ); --tw-sepia:var(--tw-empty, ); --tw-drop-shadow:var(--tw-empty, ); --tw-filter:var(--tw-blur) var(--tw-brightness) var(--tw-contrast) var(--tw-grayscale) var(--tw-hue-rotate) var(--tw-invert) var(--tw-saturate) var(--tw-sepia) var(--tw-drop-shadow); --tw-backdrop-blur:var(--tw-empty, ); --tw-backdrop-brightness:var(--tw-empty, ); --tw-backdrop-contrast:var(--tw-empty, ); --tw-backdrop-grayscale:var(--tw-empty, ); --tw-backdrop-hue-rotate:var(--tw-empty, ); --tw-backdrop-invert:var(--tw-empty, ); --tw-backdrop-opacity:var(--tw-empty, ); --tw-backdrop-saturate:var(--tw-empty, ); --tw-backdrop-sepia:var(--tw-empty, ); --tw-backdrop-filter:var(--tw-backdrop-blur) var(--tw-backdrop-brightness) var(--tw-backdrop-contrast) var(--tw-backdrop-grayscale) var(--tw-backdrop-hue-rotate) var(--tw-backdrop-invert) var(--tw-backdrop-opacity) var(--tw-backdrop-saturate) var(--tw-backdrop-sepia); margin-bottom: 0.5em; margin-top: 0.5em; padding-left: 1.75em; position: relative;&quot;&gt;&lt;code style=&quot;border-width: 0px; border-style: solid; border-color: rgba(229,231,235,var(--tw-border-opacity)); border-image: initial; box-sizing: border-box; --tw-translate-x:0; --tw-translate-y:0; --tw-rotate:0; --tw-skew-x:0; --tw-skew-y:0; --tw-scale-x:1; --tw-scale-y:1; --tw-transform:translateX(var(--tw-translate-x)) translateY(var(--tw-translate-y)) rotate(var(--tw-rotate)) skewX(var(--tw-skew-x)) skewY(var(--tw-skew-y)) scaleX(var(--tw-scale-x)) scaleY(var(--tw-scale-y)); --tw-border-opacity:1; --tw-ring-inset:var(--tw-empty, ); --tw-ring-offset-width:0px; --tw-ring-offset-color:#fff; --tw-ring-color:rgba(59,130,246,0.5); --tw-ring-offset-shadow:0 0 #0000; --tw-ring-shadow:0 0 #0000; --tw-shadow:0 0 #0000; --tw-blur:var(--tw-empty, ); --tw-brightness:var(--tw-empty, ); --tw-contrast:var(--tw-empty, ); --tw-grayscale:var(--tw-empty, ); --tw-hue-rotate:var(--tw-empty, ); --tw-invert:var(--tw-empty, ); --tw-saturate:var(--tw-empty, ); --tw-sepia:var(--tw-empty, ); --tw-drop-shadow:var(--tw-empty, ); --tw-filter:var(--tw-blur) var(--tw-brightness) var(--tw-contrast) var(--tw-grayscale) var(--tw-hue-rotate) var(--tw-invert) var(--tw-saturate) var(--tw-sepia) var(--tw-drop-shadow); --tw-backdrop-blur:var(--tw-empty, ); --tw-backdrop-brightness:var(--tw-empty, ); --tw-backdrop-contrast:var(--tw-empty, ); --tw-backdrop-grayscale:var(--tw-empty, ); --tw-backdrop-hue-rotate:var(--tw-empty, ); --tw-backdrop-invert:var(--tw-empty, ); --tw-backdrop-opacity:var(--tw-empty, ); --tw-backdrop-saturate:var(--tw-empty, ); --tw-backdrop-sepia:var(--tw-empty, ); --tw-backdrop-filter:var(--tw-backdrop-blur) var(--tw-backdrop-brightness) var(--tw-backdrop-contrast) var(--tw-backdrop-grayscale) var(--tw-backdrop-hue-rotate) var(--tw-backdrop-invert) var(--tw-backdrop-opacity) var(--tw-backdrop-saturate) var(--tw-backdrop-sepia); font-family: &amp;quot;IBM Plex Mono&amp;quot;, ui-monospace, SFMono-Regular, Menlo, Monaco, Consolas, &amp;quot;Liberation Mono&amp;quot;, &amp;quot;Courier New&amp;quot;, monospace; font-size: 0.875em; color: rgba(31,41,55,var(--tw-text-opacity)); --tw-text-opacity:1; margin-top: 1.25em;&quot;&gt;agg&lt;/code&gt;: a&amp;nbsp;&lt;code style=&quot;border-width: 0px; border-style: solid; border-color: rgba(229,231,235,var(--tw-border-opacity)); border-image: initial; box-sizing: border-box; --tw-translate-x:0; --tw-translate-y:0; --tw-rotate:0; --tw-skew-x:0; --tw-skew-y:0; --tw-scale-x:1; --tw-scale-y:1; --tw-transform:translateX(var(--tw-translate-x)) translateY(var(--tw-translate-y)) rotate(var(--tw-rotate)) skewX(var(--tw-skew-x)) skewY(var(--tw-skew-y)) scaleX(var(--tw-scale-x)) scaleY(var(--tw-scale-y)); --tw-border-opacity:1; --tw-ring-inset:var(--tw-empty, ); --tw-ring-offset-width:0px; --tw-ring-offset-color:#fff; --tw-ring-color:rgba(59,130,246,0.5); --tw-ring-offset-shadow:0 0 #0000; --tw-ring-shadow:0 0 #0000; --tw-shadow:0 0 #0000; --tw-blur:var(--tw-empty, ); --tw-brightness:var(--tw-empty, ); --tw-contrast:var(--tw-empty, ); --tw-grayscale:var(--tw-empty, ); --tw-hue-rotate:var(--tw-empty, ); --tw-invert:var(--tw-empty, ); --tw-saturate:var(--tw-empty, ); --tw-sepia:var(--tw-empty, ); --tw-drop-shadow:var(--tw-empty, ); --tw-filter:var(--tw-blur) var(--tw-brightness) var(--tw-contrast) var(--tw-grayscale) var(--tw-hue-rotate) var(--tw-invert) var(--tw-saturate) var(--tw-sepia) var(--tw-drop-shadow); --tw-backdrop-blur:var(--tw-empty, ); --tw-backdrop-brightness:var(--tw-empty, ); --tw-backdrop-contrast:var(--tw-empty, ); --tw-backdrop-grayscale:var(--tw-empty, ); --tw-backdrop-hue-rotate:var(--tw-empty, ); --tw-backdrop-invert:var(--tw-empty, ); --tw-backdrop-opacity:var(--tw-empty, ); --tw-backdrop-saturate:var(--tw-empty, ); --tw-backdrop-sepia:var(--tw-empty, ); --tw-backdrop-filter:var(--tw-backdrop-blur) var(--tw-backdrop-brightness) var(--tw-backdrop-contrast) var(--tw-backdrop-grayscale) var(--tw-backdrop-hue-rotate) var(--tw-backdrop-invert) var(--tw-backdrop-opacity) var(--tw-backdrop-saturate) var(--tw-backdrop-sepia); font-family: &amp;quot;IBM Plex Mono&amp;quot;, ui-monospace, SFMono-Regular, Menlo, Monaco, Consolas, &amp;quot;Liberation Mono&amp;quot;, &amp;quot;Courier New&amp;quot;, monospace; font-size: 0.875em; color: rgba(31,41,55,var(--tw-text-opacity)); --tw-text-opacity:1; margin-bottom: 1.25em;&quot;&gt;int32&lt;/code&gt;&amp;nbsp;feature.&lt;/li&gt;&lt;li style=&quot;border-width: 0px; border-style: solid; border-color: rgba(229,231,235,var(--tw-border-opacity)); border-image: initial; box-sizing: border-box; --tw-translate-x:0; --tw-translate-y:0; --tw-rotate:0; --tw-skew-x:0; --tw-skew-y:0; --tw-scale-x:1; --tw-scale-y:1; --tw-transform:translateX(var(--tw-translate-x)) translateY(var(--tw-translate-y)) rotate(var(--tw-rotate)) skewX(var(--tw-skew-x)) skewY(var(--tw-skew-y)) scaleX(var(--tw-scale-x)) scaleY(var(--tw-scale-y)); --tw-border-opacity:1; --tw-ring-inset:var(--tw-empty, ); --tw-ring-offset-width:0px; --tw-ring-offset-color:#fff; --tw-ring-color:rgba(59,130,246,0.5); --tw-ring-offset-shadow:0 0 #0000; --tw-ring-shadow:0 0 #0000; --tw-shadow:0 0 #0000; --tw-blur:var(--tw-empty, ); --tw-brightness:var(--tw-empty, ); --tw-contrast:var(--tw-empty, ); --tw-grayscale:var(--tw-empty, ); --tw-hue-rotate:var(--tw-empty, ); --tw-invert:var(--tw-empty, ); --tw-saturate:var(--tw-empty, ); --tw-sepia:var(--tw-empty, ); --tw-drop-shadow:var(--tw-empty, ); --tw-filter:var(--tw-blur) var(--tw-brightness) var(--tw-contrast) var(--tw-grayscale) var(--tw-hue-rotate) var(--tw-invert) var(--tw-saturate) var(--tw-sepia) var(--tw-drop-shadow); --tw-backdrop-blur:var(--tw-empty, ); --tw-backdrop-brightness:var(--tw-empty, ); --tw-backdrop-contrast:var(--tw-empty, ); --tw-backdrop-grayscale:var(--tw-empty, ); --tw-backdrop-hue-rotate:var(--tw-empty, ); --tw-backdrop-invert:var(--tw-empty, ); --tw-backdrop-opacity:var(--tw-empty, ); --tw-backdrop-saturate:var(--tw-empty, ); --tw-backdrop-sepia:var(--tw-empty, ); --tw-backdrop-filter:var(--tw-backdrop-blur) var(--tw-backdrop-brightness) var(--tw-backdrop-contrast) var(--tw-backdrop-grayscale) var(--tw-backdrop-hue-rotate) var(--tw-backdrop-invert) var(--tw-backdrop-opacity) var(--tw-backdrop-saturate) var(--tw-backdrop-sepia); margin-bottom: 0.5em; margin-top: 0.5em; padding-left: 1.75em; position: relative;&quot;&gt;&lt;code style=&quot;border-width: 0px; border-style: solid; border-color: rgba(229,231,235,var(--tw-border-opacity)); border-image: initial; box-sizing: border-box; --tw-translate-x:0; --tw-translate-y:0; --tw-rotate:0; --tw-skew-x:0; --tw-skew-y:0; --tw-scale-x:1; --tw-scale-y:1; --tw-transform:translateX(var(--tw-translate-x)) translateY(var(--tw-translate-y)) rotate(var(--tw-rotate)) skewX(var(--tw-skew-x)) skewY(var(--tw-skew-y)) scaleX(var(--tw-scale-x)) scaleY(var(--tw-scale-y)); --tw-border-opacity:1; --tw-ring-inset:var(--tw-empty, ); --tw-ring-offset-width:0px; --tw-ring-offset-color:#fff; --tw-ring-color:rgba(59,130,246,0.5); --tw-ring-offset-shadow:0 0 #0000; --tw-ring-shadow:0 0 #0000; --tw-shadow:0 0 #0000; --tw-blur:var(--tw-empty, ); --tw-brightness:var(--tw-empty, ); --tw-contrast:var(--tw-empty, ); --tw-grayscale:var(--tw-empty, ); --tw-hue-rotate:var(--tw-empty, ); --tw-invert:var(--tw-empty, ); --tw-saturate:var(--tw-empty, ); --tw-sepia:var(--tw-empty, ); --tw-drop-shadow:var(--tw-empty, ); --tw-filter:var(--tw-blur) var(--tw-brightness) var(--tw-contrast) var(--tw-grayscale) var(--tw-hue-rotate) var(--tw-invert) var(--tw-saturate) var(--tw-sepia) var(--tw-drop-shadow); --tw-backdrop-blur:var(--tw-empty, ); --tw-backdrop-brightness:var(--tw-empty, ); --tw-backdrop-contrast:var(--tw-empty, ); --tw-backdrop-grayscale:var(--tw-empty, ); --tw-backdrop-hue-rotate:var(--tw-empty, ); --tw-backdrop-invert:var(--tw-empty, ); --tw-backdrop-opacity:var(--tw-empty, ); --tw-backdrop-saturate:var(--tw-empty, ); --tw-backdrop-sepia:var(--tw-empty, ); --tw-backdrop-filter:var(--tw-backdrop-blur) var(--tw-backdrop-brightness) var(--tw-backdrop-contrast) var(--tw-backdrop-grayscale) var(--tw-backdrop-hue-rotate) var(--tw-backdrop-invert) var(--tw-backdrop-opacity) var(--tw-backdrop-saturate) var(--tw-backdrop-sepia); font-family: &amp;quot;IBM Plex Mono&amp;quot;, ui-monospace, SFMono-Regular, Menlo, Monaco, Consolas, &amp;quot;Liberation Mono&amp;quot;, &amp;quot;Courier New&amp;quot;, monospace; font-size: 0.875em; color: rgba(31,41,55,var(--tw-text-opacity)); --tw-text-opacity:1; margin-top: 1.25em;&quot;&gt;conds&lt;/code&gt;: a dictionary feature containing:&lt;ul style=&quot;border-width: 0px; border-style: solid; border-color: rgba(229,231,235,var(--tw-border-opacity)); border-image: initial; box-sizing: border-box; --tw-translate-x:0; --tw-translate-y:0; --tw-rotate:0; --tw-skew-x:0; --tw-skew-y:0; --tw-scale-x:1; --tw-scale-y:1; --tw-transform:translateX(var(--tw-translate-x)) translateY(var(--tw-translate-y)) rotate(var(--tw-rotate)) skewX(var(--tw-skew-x)) skewY(var(--tw-skew-y)) scaleX(var(--tw-scale-x)) scaleY(var(--tw-scale-y)); --tw-border-opacity:1; --tw-ring-inset:var(--tw-empty, ); --tw-ring-offset-width:0px; --tw-ring-offset-color:#fff; --tw-ring-color:rgba(59,130,246,0.5); --tw-ring-offset-shadow:0 0 #0000; --tw-ring-shadow:0 0 #0000; --tw-shadow:0 0 #0000; --tw-blur:var(--tw-empty, ); --tw-brightness:var(--tw-empty, ); --tw-contrast:var(--tw-empty, ); --tw-grayscale:var(--tw-empty, ); --tw-hue-rotate:var(--tw-empty, ); --tw-invert:var(--tw-empty, ); --tw-saturate:var(--tw-empty, ); --tw-sepia:var(--tw-empty, ); --tw-drop-shadow:var(--tw-empty, ); --tw-filter:var(--tw-blur) var(--tw-brightness) var(--tw-contrast) var(--tw-grayscale) var(--tw-hue-rotate) var(--tw-invert) var(--tw-saturate) var(--tw-sepia) var(--tw-drop-shadow); --tw-backdrop-blur:var(--tw-empty, ); --tw-backdrop-brightness:var(--tw-empty, ); --tw-backdrop-contrast:var(--tw-empty, ); --tw-backdrop-grayscale:var(--tw-empty, ); --tw-backdrop-hue-rotate:var(--tw-empty, ); --tw-backdrop-invert:var(--tw-empty, ); --tw-backdrop-opacity:var(--tw-empty, ); --tw-backdrop-saturate:var(--tw-empty, ); --tw-backdrop-sepia:var(--tw-empty, ); --tw-backdrop-filter:var(--tw-backdrop-blur) var(--tw-backdrop-brightness) var(--tw-backdrop-contrast) var(--tw-backdrop-grayscale) var(--tw-backdrop-hue-rotate) var(--tw-backdrop-invert) var(--tw-backdrop-opacity) var(--tw-backdrop-saturate) var(--tw-backdrop-sepia); margin: 0.75em 0px 1.25em; padding: 0px; list-style: none;&quot;&gt;&lt;li style=&quot;border-width: 0px; border-style: solid; border-color: rgba(229,231,235,var(--tw-border-opacity)); border-image: initial; box-sizing: border-box; --tw-translate-x:0; --tw-translate-y:0; --tw-rotate:0; --tw-skew-x:0; --tw-skew-y:0; --tw-scale-x:1; --tw-scale-y:1; --tw-transform:translateX(var(--tw-translate-x)) translateY(var(--tw-translate-y)) rotate(var(--tw-rotate)) skewX(var(--tw-skew-x)) skewY(var(--tw-skew-y)) scaleX(var(--tw-scale-x)) scaleY(var(--tw-scale-y)); --tw-border-opacity:1; --tw-ring-inset:var(--tw-empty, ); --tw-ring-offset-width:0px; --tw-ring-offset-color:#fff; --tw-ring-color:rgba(59,130,246,0.5); --tw-ring-offset-shadow:0 0 #0000; --tw-ring-shadow:0 0 #0000; --tw-shadow:0 0 #0000; --tw-blur:var(--tw-empty, ); --tw-brightness:var(--tw-empty, ); --tw-contrast:var(--tw-empty, ); --tw-grayscale:var(--tw-empty, ); --tw-hue-rotate:var(--tw-empty, ); --tw-invert:var(--tw-empty, ); --tw-saturate:var(--tw-empty, ); --tw-sepia:var(--tw-empty, ); --tw-drop-shadow:var(--tw-empty, ); --tw-filter:var(--tw-blur) var(--tw-brightness) var(--tw-contrast) var(--tw-grayscale) var(--tw-hue-rotate) var(--tw-invert) var(--tw-saturate) var(--tw-sepia) var(--tw-drop-shadow); --tw-backdrop-blur:var(--tw-empty, ); --tw-backdrop-brightness:var(--tw-empty, ); --tw-backdrop-contrast:var(--tw-empty, ); --tw-backdrop-grayscale:var(--tw-empty, ); --tw-backdrop-hue-rotate:var(--tw-empty, ); --tw-backdrop-invert:var(--tw-empty, ); --tw-backdrop-opacity:var(--tw-empty, ); --tw-backdrop-saturate:var(--tw-empty, ); --tw-backdrop-sepia:var(--tw-empty, ); --tw-backdrop-filter:var(--tw-backdrop-blur) var(--tw-backdrop-brightness) var(--tw-backdrop-contrast) var(--tw-backdrop-grayscale) var(--tw-backdrop-hue-rotate) var(--tw-backdrop-invert) var(--tw-backdrop-opacity) var(--tw-backdrop-saturate) var(--tw-backdrop-sepia); margin-bottom: 0.5em; margin-top: 0.5em; padding-left: 1.75em; position: relative;&quot;&gt;&lt;code style=&quot;border-width: 0px; border-style: solid; border-color: rgba(229,231,235,var(--tw-border-opacity)); border-image: initial; box-sizing: border-box; --tw-translate-x:0; --tw-translate-y:0; --tw-rotate:0; --tw-skew-x:0; --tw-skew-y:0; --tw-scale-x:1; --tw-scale-y:1; --tw-transform:translateX(var(--tw-translate-x)) translateY(var(--tw-translate-y)) rotate(var(--tw-rotate)) skewX(var(--tw-skew-x)) skewY(var(--tw-skew-y)) scaleX(var(--tw-scale-x)) scaleY(var(--tw-scale-y)); --tw-border-opacity:1; --tw-ring-inset:var(--tw-empty, ); --tw-ring-offset-width:0px; --tw-ring-offset-color:#fff; --tw-ring-color:rgba(59,130,246,0.5); --tw-ring-offset-shadow:0 0 #0000; --tw-ring-shadow:0 0 #0000; --tw-shadow:0 0 #0000; --tw-blur:var(--tw-empty, ); --tw-brightness:var(--tw-empty, ); --tw-contrast:var(--tw-empty, ); --tw-grayscale:var(--tw-empty, ); --tw-hue-rotate:var(--tw-empty, ); --tw-invert:var(--tw-empty, ); --tw-saturate:var(--tw-empty, ); --tw-sepia:var(--tw-empty, ); --tw-drop-shadow:var(--tw-empty, ); --tw-filter:var(--tw-blur) var(--tw-brightness) var(--tw-contrast) var(--tw-grayscale) var(--tw-hue-rotate) var(--tw-invert) var(--tw-saturate) var(--tw-sepia) var(--tw-drop-shadow); --tw-backdrop-blur:var(--tw-empty, ); --tw-backdrop-brightness:var(--tw-empty, ); --tw-backdrop-contrast:var(--tw-empty, ); --tw-backdrop-grayscale:var(--tw-empty, ); --tw-backdrop-hue-rotate:var(--tw-empty, ); --tw-backdrop-invert:var(--tw-empty, ); --tw-backdrop-opacity:var(--tw-empty, ); --tw-backdrop-saturate:var(--tw-empty, ); --tw-backdrop-sepia:var(--tw-empty, ); --tw-backdrop-filter:var(--tw-backdrop-blur) var(--tw-backdrop-brightness) var(--tw-backdrop-contrast) var(--tw-backdrop-grayscale) var(--tw-backdrop-hue-rotate) var(--tw-backdrop-invert) var(--tw-backdrop-opacity) var(--tw-backdrop-saturate) var(--tw-backdrop-sepia); font-family: &amp;quot;IBM Plex Mono&amp;quot;, ui-monospace, SFMono-Regular, Menlo, Monaco, Consolas, &amp;quot;Liberation Mono&amp;quot;, &amp;quot;Courier New&amp;quot;, monospace; font-size: 0.875em; color: rgba(31,41,55,var(--tw-text-opacity)); --tw-text-opacity:1;&quot;&gt;column_index&lt;/code&gt;: a&amp;nbsp;&lt;code style=&quot;border-width: 0px; border-style: solid; border-color: rgba(229,231,235,var(--tw-border-opacity)); border-image: initial; box-sizing: border-box; --tw-translate-x:0; --tw-translate-y:0; --tw-rotate:0; --tw-skew-x:0; --tw-skew-y:0; --tw-scale-x:1; --tw-scale-y:1; --tw-transform:translateX(var(--tw-translate-x)) translateY(var(--tw-translate-y)) rotate(var(--tw-rotate)) skewX(var(--tw-skew-x)) skewY(var(--tw-skew-y)) scaleX(var(--tw-scale-x)) scaleY(var(--tw-scale-y)); --tw-border-opacity:1; --tw-ring-inset:var(--tw-empty, ); --tw-ring-offset-width:0px; --tw-ring-offset-color:#fff; --tw-ring-color:rgba(59,130,246,0.5); --tw-ring-offset-shadow:0 0 #0000; --tw-ring-shadow:0 0 #0000; --tw-shadow:0 0 #0000; --tw-blur:var(--tw-empty, ); --tw-brightness:var(--tw-empty, ); --tw-contrast:var(--tw-empty, ); --tw-grayscale:var(--tw-empty, ); --tw-hue-rotate:var(--tw-empty, ); --tw-invert:var(--tw-empty, ); --tw-saturate:var(--tw-empty, ); --tw-sepia:var(--tw-empty, ); --tw-drop-shadow:var(--tw-empty, ); --tw-filter:var(--tw-blur) var(--tw-brightness) var(--tw-contrast) var(--tw-grayscale) var(--tw-hue-rotate) var(--tw-invert) var(--tw-saturate) var(--tw-sepia) var(--tw-drop-shadow); --tw-backdrop-blur:var(--tw-empty, ); --tw-backdrop-brightness:var(--tw-empty, ); --tw-backdrop-contrast:var(--tw-empty, ); --tw-backdrop-grayscale:var(--tw-empty, ); --tw-backdrop-hue-rotate:var(--tw-empty, ); --tw-backdrop-invert:var(--tw-empty, ); --tw-backdrop-opacity:var(--tw-empty, ); --tw-backdrop-saturate:var(--tw-empty, ); --tw-backdrop-sepia:var(--tw-empty, ); --tw-backdrop-filter:var(--tw-backdrop-blur) var(--tw-backdrop-brightness) var(--tw-backdrop-contrast) var(--tw-backdrop-grayscale) var(--tw-backdrop-hue-rotate) var(--tw-backdrop-invert) var(--tw-backdrop-opacity) var(--tw-backdrop-saturate) var(--tw-backdrop-sepia); font-family: &amp;quot;IBM Plex Mono&amp;quot;, ui-monospace, SFMono-Regular, Menlo, Monaco, Consolas, &amp;quot;Liberation Mono&amp;quot;, &amp;quot;Courier New&amp;quot;, monospace; font-size: 0.875em; color: rgba(31,41,55,var(--tw-text-opacity)); --tw-text-opacity:1;&quot;&gt;int32&lt;/code&gt;&amp;nbsp;feature.&lt;/li&gt;&lt;li style=&quot;border-width: 0px; border-style: solid; border-color: rgba(229,231,235,var(--tw-border-opacity)); border-image: initial; box-sizing: border-box; --tw-translate-x:0; --tw-translate-y:0; --tw-rotate:0; --tw-skew-x:0; --tw-skew-y:0; --tw-scale-x:1; --tw-scale-y:1; --tw-transform:translateX(var(--tw-translate-x)) translateY(var(--tw-translate-y)) rotate(var(--tw-rotate)) skewX(var(--tw-skew-x)) skewY(var(--tw-skew-y)) scaleX(var(--tw-scale-x)) scaleY(var(--tw-scale-y)); --tw-border-opacity:1; --tw-ring-inset:var(--tw-empty, ); --tw-ring-offset-width:0px; --tw-ring-offset-color:#fff; --tw-ring-color:rgba(59,130,246,0.5); --tw-ring-offset-shadow:0 0 #0000; --tw-ring-shadow:0 0 #0000; --tw-shadow:0 0 #0000; --tw-blur:var(--tw-empty, ); --tw-brightness:var(--tw-empty, ); --tw-contrast:var(--tw-empty, ); --tw-grayscale:var(--tw-empty, ); --tw-hue-rotate:var(--tw-empty, ); --tw-invert:var(--tw-empty, ); --tw-saturate:var(--tw-empty, ); --tw-sepia:var(--tw-empty, ); --tw-drop-shadow:var(--tw-empty, ); --tw-filter:var(--tw-blur) var(--tw-brightness) var(--tw-contrast) var(--tw-grayscale) var(--tw-hue-rotate) var(--tw-invert) var(--tw-saturate) var(--tw-sepia) var(--tw-drop-shadow); --tw-backdrop-blur:var(--tw-empty, ); --tw-backdrop-brightness:var(--tw-empty, ); --tw-backdrop-contrast:var(--tw-empty, ); --tw-backdrop-grayscale:var(--tw-empty, ); --tw-backdrop-hue-rotate:var(--tw-empty, ); --tw-backdrop-invert:var(--tw-empty, ); --tw-backdrop-opacity:var(--tw-empty, ); --tw-backdrop-saturate:var(--tw-empty, ); --tw-backdrop-sepia:var(--tw-empty, ); --tw-backdrop-filter:var(--tw-backdrop-blur) var(--tw-backdrop-brightness) var(--tw-backdrop-contrast) var(--tw-backdrop-grayscale) var(--tw-backdrop-hue-rotate) var(--tw-backdrop-invert) var(--tw-backdrop-opacity) var(--tw-backdrop-saturate) var(--tw-backdrop-sepia); margin-bottom: 0.5em; margin-top: 0.5em; padding-left: 1.75em; position: relative;&quot;&gt;&lt;code style=&quot;border-width: 0px; border-style: solid; border-color: rgba(229,231,235,var(--tw-border-opacity)); border-image: initial; box-sizing: border-box; --tw-translate-x:0; --tw-translate-y:0; --tw-rotate:0; --tw-skew-x:0; --tw-skew-y:0; --tw-scale-x:1; --tw-scale-y:1; --tw-transform:translateX(var(--tw-translate-x)) translateY(var(--tw-translate-y)) rotate(var(--tw-rotate)) skewX(var(--tw-skew-x)) skewY(var(--tw-skew-y)) scaleX(var(--tw-scale-x)) scaleY(var(--tw-scale-y)); --tw-border-opacity:1; --tw-ring-inset:var(--tw-empty, ); --tw-ring-offset-width:0px; --tw-ring-offset-color:#fff; --tw-ring-color:rgba(59,130,246,0.5); --tw-ring-offset-shadow:0 0 #0000; --tw-ring-shadow:0 0 #0000; --tw-shadow:0 0 #0000; --tw-blur:var(--tw-empty, ); --tw-brightness:var(--tw-empty, ); --tw-contrast:var(--tw-empty, ); --tw-grayscale:var(--tw-empty, ); --tw-hue-rotate:var(--tw-empty, ); --tw-invert:var(--tw-empty, ); --tw-saturate:var(--tw-empty, ); --tw-sepia:var(--tw-empty, ); --tw-drop-shadow:var(--tw-empty, ); --tw-filter:var(--tw-blur) var(--tw-brightness) var(--tw-contrast) var(--tw-grayscale) var(--tw-hue-rotate) var(--tw-invert) var(--tw-saturate) var(--tw-sepia) var(--tw-drop-shadow); --tw-backdrop-blur:var(--tw-empty, ); --tw-backdrop-brightness:var(--tw-empty, ); --tw-backdrop-contrast:var(--tw-empty, ); --tw-backdrop-grayscale:var(--tw-empty, ); --tw-backdrop-hue-rotate:var(--tw-empty, ); --tw-backdrop-invert:var(--tw-empty, ); --tw-backdrop-opacity:var(--tw-empty, ); --tw-backdrop-saturate:var(--tw-empty, ); --tw-backdrop-sepia:var(--tw-empty, ); --tw-backdrop-filter:var(--tw-backdrop-blur) var(--tw-backdrop-brightness) var(--tw-backdrop-contrast) var(--tw-backdrop-grayscale) var(--tw-backdrop-hue-rotate) var(--tw-backdrop-invert) var(--tw-backdrop-opacity) var(--tw-backdrop-saturate) var(--tw-backdrop-sepia); font-family: &amp;quot;IBM Plex Mono&amp;quot;, ui-monospace, SFMono-Regular, Menlo, Monaco, Consolas, &amp;quot;Liberation Mono&amp;quot;, &amp;quot;Courier New&amp;quot;, monospace; font-size: 0.875em; color: rgba(31,41,55,var(--tw-text-opacity)); --tw-text-opacity:1;&quot;&gt;operator_index&lt;/code&gt;: a&amp;nbsp;&lt;code style=&quot;border-width: 0px; border-style: solid; border-color: rgba(229,231,235,var(--tw-border-opacity)); border-image: initial; box-sizing: border-box; --tw-translate-x:0; --tw-translate-y:0; --tw-rotate:0; --tw-skew-x:0; --tw-skew-y:0; --tw-scale-x:1; --tw-scale-y:1; --tw-transform:translateX(var(--tw-translate-x)) translateY(var(--tw-translate-y)) rotate(var(--tw-rotate)) skewX(var(--tw-skew-x)) skewY(var(--tw-skew-y)) scaleX(var(--tw-scale-x)) scaleY(var(--tw-scale-y)); --tw-border-opacity:1; --tw-ring-inset:var(--tw-empty, ); --tw-ring-offset-width:0px; --tw-ring-offset-color:#fff; --tw-ring-color:rgba(59,130,246,0.5); --tw-ring-offset-shadow:0 0 #0000; --tw-ring-shadow:0 0 #0000; --tw-shadow:0 0 #0000; --tw-blur:var(--tw-empty, ); --tw-brightness:var(--tw-empty, ); --tw-contrast:var(--tw-empty, ); --tw-grayscale:var(--tw-empty, ); --tw-hue-rotate:var(--tw-empty, ); --tw-invert:var(--tw-empty, ); --tw-saturate:var(--tw-empty, ); --tw-sepia:var(--tw-empty, ); --tw-drop-shadow:var(--tw-empty, ); --tw-filter:var(--tw-blur) var(--tw-brightness) var(--tw-contrast) var(--tw-grayscale) var(--tw-hue-rotate) var(--tw-invert) var(--tw-saturate) var(--tw-sepia) var(--tw-drop-shadow); --tw-backdrop-blur:var(--tw-empty, ); --tw-backdrop-brightness:var(--tw-empty, ); --tw-backdrop-contrast:var(--tw-empty, ); --tw-backdrop-grayscale:var(--tw-empty, ); --tw-backdrop-hue-rotate:var(--tw-empty, ); --tw-backdrop-invert:var(--tw-empty, ); --tw-backdrop-opacity:var(--tw-empty, ); --tw-backdrop-saturate:var(--tw-empty, ); --tw-backdrop-sepia:var(--tw-empty, ); --tw-backdrop-filter:var(--tw-backdrop-blur) var(--tw-backdrop-brightness) var(--tw-backdrop-contrast) var(--tw-backdrop-grayscale) var(--tw-backdrop-hue-rotate) var(--tw-backdrop-invert) var(--tw-backdrop-opacity) var(--tw-backdrop-saturate) var(--tw-backdrop-sepia); font-family: &amp;quot;IBM Plex Mono&amp;quot;, ui-monospace, SFMono-Regular, Menlo, Monaco, Consolas, &amp;quot;Liberation Mono&amp;quot;, &amp;quot;Courier New&amp;quot;, monospace; font-size: 0.875em; color: rgba(31,41,55,var(--tw-text-opacity)); --tw-text-opacity:1;&quot;&gt;int32&lt;/code&gt;&amp;nbsp;feature.&lt;/li&gt;&lt;li style=&quot;border-width: 0px; border-style: solid; border-color: rgba(229,231,235,var(--tw-border-opacity)); border-image: initial; box-sizing: border-box; --tw-translate-x:0; --tw-translate-y:0; --tw-rotate:0; --tw-skew-x:0; --tw-skew-y:0; --tw-scale-x:1; --tw-scale-y:1; --tw-transform:translateX(var(--tw-translate-x)) translateY(var(--tw-translate-y)) rotate(var(--tw-rotate)) skewX(var(--tw-skew-x)) skewY(var(--tw-skew-y)) scaleX(var(--tw-scale-x)) scaleY(var(--tw-scale-y)); --tw-border-opacity:1; --tw-ring-inset:var(--tw-empty, ); --tw-ring-offset-width:0px; --tw-ring-offset-color:#fff; --tw-ring-color:rgba(59,130,246,0.5); --tw-ring-offset-shadow:0 0 #0000; --tw-ring-shadow:0 0 #0000; --tw-shadow:0 0 #0000; --tw-blur:var(--tw-empty, ); --tw-brightness:var(--tw-empty, ); --tw-contrast:var(--tw-empty, ); --tw-grayscale:var(--tw-empty, ); --tw-hue-rotate:var(--tw-empty, ); --tw-invert:var(--tw-empty, ); --tw-saturate:var(--tw-empty, ); --tw-sepia:var(--tw-empty, ); --tw-drop-shadow:var(--tw-empty, ); --tw-filter:var(--tw-blur) var(--tw-brightness) var(--tw-contrast) var(--tw-grayscale) var(--tw-hue-rotate) var(--tw-invert) var(--tw-saturate) var(--tw-sepia) var(--tw-drop-shadow); --tw-backdrop-blur:var(--tw-empty, ); --tw-backdrop-brightness:var(--tw-empty, ); --tw-backdrop-contrast:var(--tw-empty, ); --tw-backdrop-grayscale:var(--tw-empty, ); --tw-backdrop-hue-rotate:var(--tw-empty, ); --tw-backdrop-invert:var(--tw-empty, ); --tw-backdrop-opacity:var(--tw-empty, ); --tw-backdrop-saturate:var(--tw-empty, ); --tw-backdrop-sepia:var(--tw-empty, ); --tw-backdrop-filter:var(--tw-backdrop-blur) var(--tw-backdrop-brightness) var(--tw-backdrop-contrast) var(--tw-backdrop-grayscale) var(--tw-backdrop-hue-rotate) var(--tw-backdrop-invert) var(--tw-backdrop-opacity) var(--tw-backdrop-saturate) var(--tw-backdrop-sepia); margin-bottom: 0.5em; margin-top: 0.5em; padding-left: 1.75em; position: relative;&quot;&gt;&lt;code style=&quot;border-width: 0px; border-style: solid; border-color: rgba(229,231,235,var(--tw-border-opacity)); border-image: initial; box-sizing: border-box; --tw-translate-x:0; --tw-translate-y:0; --tw-rotate:0; --tw-skew-x:0; --tw-skew-y:0; --tw-scale-x:1; --tw-scale-y:1; --tw-transform:translateX(var(--tw-translate-x)) translateY(var(--tw-translate-y)) rotate(var(--tw-rotate)) skewX(var(--tw-skew-x)) skewY(var(--tw-skew-y)) scaleX(var(--tw-scale-x)) scaleY(var(--tw-scale-y)); --tw-border-opacity:1; --tw-ring-inset:var(--tw-empty, ); --tw-ring-offset-width:0px; --tw-ring-offset-color:#fff; --tw-ring-color:rgba(59,130,246,0.5); --tw-ring-offset-shadow:0 0 #0000; --tw-ring-shadow:0 0 #0000; --tw-shadow:0 0 #0000; --tw-blur:var(--tw-empty, ); --tw-brightness:var(--tw-empty, ); --tw-contrast:var(--tw-empty, ); --tw-grayscale:var(--tw-empty, ); --tw-hue-rotate:var(--tw-empty, ); --tw-invert:var(--tw-empty, ); --tw-saturate:var(--tw-empty, ); --tw-sepia:var(--tw-empty, ); --tw-drop-shadow:var(--tw-empty, ); --tw-filter:var(--tw-blur) var(--tw-brightness) var(--tw-contrast) var(--tw-grayscale) var(--tw-hue-rotate) var(--tw-invert) var(--tw-saturate) var(--tw-sepia) var(--tw-drop-shadow); --tw-backdrop-blur:var(--tw-empty, ); --tw-backdrop-brightness:var(--tw-empty, ); --tw-backdrop-contrast:var(--tw-empty, ); --tw-backdrop-grayscale:var(--tw-empty, ); --tw-backdrop-hue-rotate:var(--tw-empty, ); --tw-backdrop-invert:var(--tw-empty, ); --tw-backdrop-opacity:var(--tw-empty, ); --tw-backdrop-saturate:var(--tw-empty, ); --tw-backdrop-sepia:var(--tw-empty, ); --tw-backdrop-filter:var(--tw-backdrop-blur) var(--tw-backdrop-brightness) var(--tw-backdrop-contrast) var(--tw-backdrop-grayscale) var(--tw-backdrop-hue-rotate) var(--tw-backdrop-invert) var(--tw-backdrop-opacity) var(--tw-backdrop-saturate) var(--tw-backdrop-sepia); font-family: &amp;quot;IBM Plex Mono&amp;quot;, ui-monospace, SFMono-Regular, Menlo, Monaco, Consolas, &amp;quot;Liberation Mono&amp;quot;, &amp;quot;Courier New&amp;quot;, monospace; font-size: 0.875em; color: rgba(31,41,55,var(--tw-text-opacity)); --tw-text-opacity:1;&quot;&gt;condition&lt;/code&gt;: a&amp;nbsp;&lt;code style=&quot;border-width: 0px; border-style: solid; border-color: rgba(229,231,235,var(--tw-border-opacity)); border-image: initial; box-sizing: border-box; --tw-translate-x:0; --tw-translate-y:0; --tw-rotate:0; --tw-skew-x:0; --tw-skew-y:0; --tw-scale-x:1; --tw-scale-y:1; --tw-transform:translateX(var(--tw-translate-x)) translateY(var(--tw-translate-y)) rotate(var(--tw-rotate)) skewX(var(--tw-skew-x)) skewY(var(--tw-skew-y)) scaleX(var(--tw-scale-x)) scaleY(var(--tw-scale-y)); --tw-border-opacity:1; --tw-ring-inset:var(--tw-empty, ); --tw-ring-offset-width:0px; --tw-ring-offset-color:#fff; --tw-ring-color:rgba(59,130,246,0.5); --tw-ring-offset-shadow:0 0 #0000; --tw-ring-shadow:0 0 #0000; --tw-shadow:0 0 #0000; --tw-blur:var(--tw-empty, ); --tw-brightness:var(--tw-empty, ); --tw-contrast:var(--tw-empty, ); --tw-grayscale:var(--tw-empty, ); --tw-hue-rotate:var(--tw-empty, ); --tw-invert:var(--tw-empty, ); --tw-saturate:var(--tw-empty, ); --tw-sepia:var(--tw-empty, ); --tw-drop-shadow:var(--tw-empty, ); --tw-filter:var(--tw-blur) var(--tw-brightness) var(--tw-contrast) var(--tw-grayscale) var(--tw-hue-rotate) var(--tw-invert) var(--tw-saturate) var(--tw-sepia) var(--tw-drop-shadow); --tw-backdrop-blur:var(--tw-empty, ); --tw-backdrop-brightness:var(--tw-empty, ); --tw-backdrop-contrast:var(--tw-empty, ); --tw-backdrop-grayscale:var(--tw-empty, ); --tw-backdrop-hue-rotate:var(--tw-empty, ); --tw-backdrop-invert:var(--tw-empty, ); --tw-backdrop-opacity:var(--tw-empty, ); --tw-backdrop-saturate:var(--tw-empty, ); --tw-backdrop-sepia:var(--tw-empty, ); --tw-backdrop-filter:var(--tw-backdrop-blur) var(--tw-backdrop-brightness) var(--tw-backdrop-contrast) var(--tw-backdrop-grayscale) var(--tw-backdrop-hue-rotate) var(--tw-backdrop-invert) var(--tw-backdrop-opacity) var(--tw-backdrop-saturate) var(--tw-backdrop-sepia); font-family: &amp;quot;IBM Plex Mono&amp;quot;, ui-monospace, SFMono-Regular, Menlo, Monaco, Consolas, &amp;quot;Liberation Mono&amp;quot;, &amp;quot;Courier New&amp;quot;, monospace; font-size: 0.875em; color: rgba(31,41,55,var(--tw-text-opacity)); --tw-text-opacity:1;&quot;&gt;string&lt;/code&gt;&amp;nbsp;feature.&lt;/li&gt;&lt;/ul&gt;&lt;/li&gt;&lt;/ul&gt;&lt;/div&gt;&lt;p&gt;&lt;span style=&quot;color: rgba(0, 0, 0, 0); font-family: monospace; font-size: 0px;&quot;&gt;%3CmxGraphModel%3E%3Croot%3E%3CmxCell%20id%3D%220%22%2F%3E%3CmxCell%20id%3D%221%22%20parent%3D%220%22%2F%3E%3CmxCell%20id%3D%222%22%20value%3D%22Predicate%22%20style%3D%22rounded%3D0%3BwhiteSpace%3Dwrap%3Bhtml%3D1%3B%22%20vertex%3D%221%22%20parent%3D%221%22%3E%3CmxGeometry%20x%3D%22300%22%20y%3D%22180%22%20width%3D%22120%22%20height%3D%2260%22%20as%3D%22geometry%22%2F%3E%3C%2FmxCell%3E%3C%2Froot%3E%3C%2FmxGraphModel%3E&lt;/span&gt;&lt;br&gt;&lt;/p&gt;" style="text;html=1;strokeColor=none;fillColor=none;spacing=5;spacingTop=-20;whiteSpace=wrap;overflow=hidden;rounded=0;" vertex="1" parent="1">
          <mxGeometry x="540" y="490" width="240" height="140" as="geometry" />
        </mxCell>
        <mxCell id="HvyeVBYdLzpq13RNhfr6-11" style="edgeStyle=orthogonalEdgeStyle;rounded=0;orthogonalLoop=1;jettySize=auto;html=1;entryX=0.5;entryY=1;entryDx=0;entryDy=0;" edge="1" parent="1" source="HvyeVBYdLzpq13RNhfr6-8" target="HvyeVBYdLzpq13RNhfr6-9">
          <mxGeometry relative="1" as="geometry" />
        </mxCell>
        <mxCell id="HvyeVBYdLzpq13RNhfr6-8" value="Actor" style="shape=umlActor;verticalLabelPosition=bottom;verticalAlign=top;html=1;outlineConnect=0;" vertex="1" parent="1">
          <mxGeometry x="90" y="570" width="35" height="60" as="geometry" />
        </mxCell>
        <mxCell id="HvyeVBYdLzpq13RNhfr6-9" value="App/SQL Edit" style="swimlane;" vertex="1" parent="1">
          <mxGeometry x="80" y="420" width="130" height="90" as="geometry" />
        </mxCell>
        <mxCell id="HvyeVBYdLzpq13RNhfr6-12" value="" style="shape=singleArrow;direction=north;whiteSpace=wrap;html=1;" vertex="1" parent="1">
          <mxGeometry x="125" y="360" width="30" height="60" as="geometry" />
        </mxCell>
        <mxCell id="HvyeVBYdLzpq13RNhfr6-19" style="edgeStyle=orthogonalEdgeStyle;rounded=0;orthogonalLoop=1;jettySize=auto;html=1;" edge="1" parent="1" source="HvyeVBYdLzpq13RNhfr6-16" target="HvyeVBYdLzpq13RNhfr6-21">
          <mxGeometry relative="1" as="geometry">
            <mxPoint x="380" y="370" as="targetPoint" />
          </mxGeometry>
        </mxCell>
        <mxCell id="HvyeVBYdLzpq13RNhfr6-20" style="edgeStyle=orthogonalEdgeStyle;rounded=0;orthogonalLoop=1;jettySize=auto;html=1;exitX=0;exitY=0.25;exitDx=0;exitDy=0;" edge="1" parent="1" source="HvyeVBYdLzpq13RNhfr6-16" target="HvyeVBYdLzpq13RNhfr6-5">
          <mxGeometry relative="1" as="geometry" />
        </mxCell>
        <mxCell id="HvyeVBYdLzpq13RNhfr6-16" value="Query Suggest" style="swimlane;" vertex="1" parent="1">
          <mxGeometry x="600" y="70" width="220" height="330" as="geometry" />
        </mxCell>
        <mxCell id="HvyeVBYdLzpq13RNhfr6-17" value="how to xyz get values?" style="rounded=1;whiteSpace=wrap;html=1;" vertex="1" parent="HvyeVBYdLzpq13RNhfr6-16">
          <mxGeometry x="10" y="30" width="140" height="30" as="geometry" />
        </mxCell>
        <mxCell id="HvyeVBYdLzpq13RNhfr6-18" value="search" style="rounded=0;whiteSpace=wrap;html=1;" vertex="1" parent="HvyeVBYdLzpq13RNhfr6-16">
          <mxGeometry x="10" y="70" width="100" height="30" as="geometry" />
        </mxCell>
        <mxCell id="HvyeVBYdLzpq13RNhfr6-22" style="edgeStyle=orthogonalEdgeStyle;rounded=0;orthogonalLoop=1;jettySize=auto;html=1;" edge="1" parent="1" source="HvyeVBYdLzpq13RNhfr6-21" target="HvyeVBYdLzpq13RNhfr6-2">
          <mxGeometry relative="1" as="geometry">
            <Array as="points">
              <mxPoint x="200" y="375" />
              <mxPoint x="200" y="200" />
            </Array>
          </mxGeometry>
        </mxCell>
        <mxCell id="HvyeVBYdLzpq13RNhfr6-21" value="search query&lt;br&gt;result&lt;br&gt;rank&lt;br&gt;feedback" style="rounded=0;whiteSpace=wrap;html=1;" vertex="1" parent="1">
          <mxGeometry x="290" y="330" width="160" height="90" as="geometry" />
        </mxCell>
      </root>
    </mxGraphModel>
  </diagram>
</mxfile>
